if (_typeface_js && _typeface_js.loadFace) _typeface_js.loadFace({"glyphs":{"S":{"x_min":59,"x_max":696,"ha":757,"o":"m 696 273 q 664 118 696 175 q 583 30 633 60 q 473 -7 534 1 q 353 -17 412 -17 q 199 9 258 -17 q 109 80 140 35 q 68 184 78 125 q 59 309 59 243 l 267 309 q 269 241 267 272 q 283 184 272 209 q 318 146 294 160 q 384 133 342 133 q 462 164 436 133 q 488 246 488 195 q 457 324 488 291 q 380 387 426 357 q 280 447 333 417 q 181 516 227 477 q 104 609 135 556 q 74 736 74 661 q 89 846 74 795 q 141 936 105 898 q 239 996 177 974 q 395 1019 302 1019 q 615 946 543 1019 q 688 717 688 874 l 484 717 q 480 772 484 745 q 466 821 477 799 q 438 855 456 842 q 388 869 419 869 q 309 841 337 869 q 282 762 282 814 q 312 681 282 714 q 389 620 343 648 q 489 564 436 592 q 588 497 542 535 q 665 405 634 459 q 696 273 696 352 "},"¦":{"x_min":94,"x_max":245,"ha":340,"o":"m 245 451 l 94 451 l 94 937 l 245 937 l 245 451 m 94 243 l 245 243 l 245 -243 l 94 -243 l 94 243 "},"/":{"x_min":-43.5625,"x_max":420.578125,"ha":378,"o":"m -43 -133 l 281 1003 l 420 1003 l 96 -133 l -43 -133 "},"y":{"x_min":12.25,"x_max":592.078125,"ha":604,"o":"m 198 -5 l 12 701 l 202 701 l 300 208 l 303 208 l 406 701 l 592 701 l 326 -265 l 125 -265 l 198 -5 "},"Ž":{"x_min":30,"x_max":651,"ha":681,"o":"m 434 1303 l 560 1303 l 413 1105 l 262 1105 l 118 1303 l 242 1303 l 338 1179 l 434 1303 m 49 1002 l 641 1002 l 641 820 l 227 154 l 651 154 l 651 0 l 30 0 l 30 183 l 442 848 l 49 848 l 49 1002 "},"Á":{"x_min":10.890625,"x_max":820.75,"ha":832,"o":"m 605 1303 l 387 1105 l 299 1105 l 421 1303 l 605 1303 m 406 809 l 404 809 l 310 376 l 506 376 l 406 809 m 10 0 l 283 1002 l 553 1002 l 820 0 l 604 0 l 549 222 l 269 222 l 213 0 l 10 0 "},"g":{"x_min":63,"x_max":602,"ha":681,"o":"m 251 329 q 251 270 251 304 q 257 205 251 236 q 280 152 264 174 q 330 131 296 131 q 393 186 380 131 q 407 353 407 240 q 407 456 407 411 q 398 531 407 500 q 374 579 390 563 q 331 595 358 595 q 287 583 303 595 q 260 542 270 572 q 251 461 251 513 q 251 329 251 410 m 602 701 l 602 -28 q 598 -86 602 -46 q 570 -166 595 -125 q 492 -238 546 -207 q 339 -269 439 -269 q 238 -260 286 -269 q 152 -229 189 -252 q 93 -165 116 -206 q 71 -61 71 -124 l 259 -61 q 262 -101 259 -83 q 275 -131 265 -118 q 339 -159 294 -159 q 392 -127 374 -159 q 409 -42 409 -95 l 409 92 l 407 92 q 347 30 385 51 q 261 10 308 10 q 140 43 181 10 q 80 128 98 76 q 63 243 63 180 q 63 365 63 305 q 63 485 63 423 q 82 597 63 547 q 144 681 102 648 q 261 715 185 715 q 354 691 313 715 q 416 620 396 668 l 419 620 l 419 701 l 602 701 "},"²":{"x_min":-3,"x_max":363,"ha":362,"o":"m 363 483 l 363 393 l -3 393 l -3 495 q 115 642 70 587 q 187 732 161 697 q 222 789 212 766 q 232 840 232 812 q 221 877 232 862 q 184 892 211 892 q 154 885 165 892 q 138 867 143 878 q 132 842 134 855 q 131 814 131 828 l 3 814 q 47 939 3 894 q 177 982 92 982 q 306 947 257 982 q 356 831 356 913 q 330 732 356 783 q 267 634 304 681 q 191 548 230 587 q 127 483 153 509 l 363 483 "},"–":{"x_min":0,"x_max":681,"ha":681,"o":"m 681 319 l 0 319 l 0 429 l 681 429 l 681 319 "},"ë":{"x_min":60,"x_max":622.5,"ha":681,"o":"m 295 969 l 295 819 l 144 819 l 144 969 l 295 969 m 536 969 l 536 819 l 385 819 l 385 969 l 536 969 m 428 429 q 428 483 428 453 q 419 537 428 512 q 392 578 411 562 q 340 594 374 594 q 289 576 307 594 q 263 533 271 559 q 255 479 255 508 q 255 429 255 451 l 428 429 m 255 319 q 255 251 255 287 q 263 183 255 214 q 289 131 271 152 q 339 110 307 110 q 381 122 365 110 q 406 151 397 133 q 418 191 415 169 q 422 236 422 213 l 614 236 q 542 54 614 117 q 458 4 509 22 q 340 -14 408 -14 q 191 13 247 -14 q 106 90 136 41 q 68 208 77 140 q 60 359 60 277 q 68 496 60 431 q 104 609 76 560 q 189 686 133 658 q 339 715 244 715 q 493 684 436 715 q 579 601 550 653 q 615 476 607 548 q 622 319 622 403 l 255 319 "},"ƒ":{"x_min":-1.359375,"x_max":581.1875,"ha":604,"o":"m 112 508 l 133 629 l 224 629 q 244 760 234 697 q 280 874 254 824 q 357 952 306 923 q 500 982 408 982 q 581 977 536 982 l 555 830 q 517 840 536 840 q 465 815 481 840 q 441 756 449 790 q 430 685 434 722 q 420 629 427 649 l 530 629 l 511 508 l 402 508 l 326 -5 q 294 -114 317 -70 q 238 -183 270 -158 q 165 -220 205 -209 q 81 -232 125 -232 q 34 -232 54 -232 q -1 -226 13 -232 l 21 -85 q 43 -90 31 -90 q 81 -80 66 -90 q 106 -56 96 -71 q 121 -22 115 -41 q 129 16 126 -3 l 202 508 l 112 508 "},"Î":{"x_min":-32.421875,"x_max":410.40625,"ha":379,"o":"m 188 1228 l 91 1105 l -32 1105 l 111 1303 l 263 1303 l 410 1105 l 283 1105 l 188 1228 m 86 0 l 86 1002 l 292 1002 l 292 0 l 86 0 "},"e":{"x_min":60,"x_max":622.5,"ha":681,"o":"m 428 429 q 428 483 428 453 q 419 537 428 512 q 392 578 411 562 q 340 594 374 594 q 289 576 307 594 q 263 533 271 559 q 255 479 255 508 q 255 429 255 451 l 428 429 m 255 319 q 255 251 255 287 q 263 183 255 214 q 289 131 271 152 q 339 110 307 110 q 381 122 365 110 q 406 151 397 133 q 418 191 415 169 q 422 236 422 213 l 614 236 q 543 54 614 117 q 459 4 509 22 q 340 -14 408 -14 q 192 13 247 -14 q 106 90 136 41 q 68 208 77 140 q 60 359 60 277 q 68 496 60 431 q 104 609 76 560 q 189 686 133 658 q 339 715 244 715 q 493 684 436 715 q 579 601 550 653 q 615 476 607 548 q 622 319 622 403 l 255 319 "},"Ã":{"x_min":10.890625,"x_max":820.75,"ha":832,"o":"m 406 809 l 404 809 l 310 376 l 506 376 l 406 809 m 654 1283 q 639 1221 649 1250 q 611 1169 628 1192 q 570 1126 594 1145 q 511 1108 545 1108 q 455 1117 483 1108 q 402 1139 428 1126 q 353 1161 377 1153 q 307 1169 329 1169 q 270 1149 281 1169 q 254 1108 258 1130 l 174 1108 q 188 1167 178 1135 q 216 1223 198 1198 q 259 1266 234 1249 q 315 1283 284 1283 q 372 1270 345 1283 q 424 1246 400 1257 q 470 1225 449 1235 q 509 1216 492 1216 q 553 1233 537 1216 q 571 1283 568 1250 l 654 1283 m 10 0 l 283 1002 l 553 1002 l 820 0 l 604 0 l 549 222 l 269 222 l 213 0 l 10 0 "},"J":{"x_min":20,"x_max":604,"ha":680,"o":"m 604 1002 l 604 232 q 580 120 604 167 q 516 42 556 73 q 425 -2 476 12 q 319 -17 373 -17 q 151 5 211 -17 q 61 72 90 28 q 26 181 32 116 q 20 332 20 246 l 228 332 q 228 267 228 302 q 234 203 228 232 q 260 153 241 173 q 319 133 279 133 q 376 160 354 133 q 398 219 398 187 l 398 1002 l 604 1002 "},"»":{"x_min":39.46875,"x_max":564.859375,"ha":604,"o":"m 322 370 l 197 104 l 39 104 l 159 370 l 42 644 l 198 644 l 322 370 m 564 370 l 439 104 l 281 104 l 401 370 l 284 644 l 441 644 l 564 370 "},"©":{"x_min":59,"x_max":1072,"ha":1131,"o":"m 564 191 q 436 217 482 191 q 370 287 391 243 q 350 386 350 331 q 350 502 350 442 q 350 617 350 561 q 370 716 350 673 q 436 785 391 759 q 563 812 481 812 q 712 760 668 812 q 756 611 756 709 l 621 611 q 606 696 621 672 q 555 720 591 720 q 495 665 508 720 q 483 509 483 611 q 483 393 483 438 q 491 325 483 349 q 515 292 499 301 q 556 283 530 283 q 597 295 582 283 q 618 326 612 308 q 625 364 625 344 q 625 403 625 385 l 760 403 q 709 236 760 282 q 564 191 659 191 m 566 80 q 725 113 651 80 q 855 204 799 146 q 944 338 911 262 q 977 502 977 414 q 944 666 977 589 q 855 799 911 742 q 725 889 799 856 q 566 922 651 922 q 406 889 481 922 q 274 799 331 856 q 186 666 218 742 q 154 502 154 589 q 186 338 154 414 q 274 204 218 262 q 406 113 331 146 q 566 80 481 80 m 566 1019 q 763 978 671 1019 q 924 868 855 938 q 1032 704 993 798 q 1072 502 1072 610 q 1032 299 1072 394 q 924 135 993 205 q 763 23 855 64 q 566 -17 671 -17 q 368 23 460 -17 q 206 135 275 64 q 98 299 137 205 q 59 502 59 394 q 98 704 59 610 q 206 868 137 798 q 368 978 275 938 q 566 1019 460 1019 "},"˘":{"x_min":-27,"x_max":408.546875,"ha":378,"o":"m 47 1003 q 98 921 58 943 q 193 900 139 900 q 282 923 246 900 q 330 1003 318 947 l 408 1003 q 337 852 398 904 q 180 800 275 800 q 29 852 85 800 q -27 1003 -27 905 l 47 1003 "},"ò":{"x_min":60,"x_max":621,"ha":681,"o":"m 335 1002 l 457 804 l 369 804 l 151 1002 l 335 1002 m 340 110 q 386 121 367 110 q 414 160 404 131 q 425 239 425 188 q 425 370 425 290 q 425 466 425 424 q 415 535 425 508 q 388 576 405 562 q 340 590 370 590 q 292 576 309 590 q 265 535 275 562 q 256 466 256 508 q 256 370 256 424 q 256 239 256 290 q 266 160 256 188 q 293 121 276 131 q 340 110 311 110 m 340 -14 q 192 13 247 -14 q 106 90 136 41 q 68 208 77 140 q 60 359 60 277 q 68 496 60 431 q 104 609 76 560 q 189 686 133 658 q 340 714 245 714 q 491 686 435 714 q 576 609 547 658 q 612 496 604 560 q 621 359 621 431 q 612 208 621 277 q 574 90 603 140 q 488 13 544 41 q 340 -14 433 -14 "},"^":{"x_min":4.078125,"x_max":676.46875,"ha":681,"o":"m 4 380 l 251 969 l 428 969 l 676 380 l 504 380 l 340 795 l 175 380 l 4 380 "},"«":{"x_min":39.46875,"x_max":564.859375,"ha":604,"o":"m 281 377 l 406 644 l 564 644 l 445 377 l 562 104 l 405 104 l 281 377 m 39 377 l 164 644 l 322 644 l 202 377 l 319 104 l 163 104 l 39 377 "},"D":{"x_min":90,"x_max":753,"ha":832,"o":"m 296 154 l 394 154 q 468 172 439 154 q 513 233 497 191 q 535 340 529 274 q 542 501 542 406 q 542 632 542 570 q 528 743 542 695 q 485 819 514 791 q 402 848 455 848 l 296 848 l 296 154 m 90 1002 l 433 1002 q 596 968 533 1002 q 693 871 659 935 q 740 715 728 807 q 753 506 753 623 q 753 414 753 467 q 746 306 753 363 q 720 194 739 249 q 665 97 702 140 q 570 27 629 54 q 424 0 512 0 l 90 0 l 90 1002 "},"∙":{"x_min":69,"x_max":232,"ha":301,"o":"m 232 401 l 232 218 l 69 218 l 69 401 l 232 401 "},"ł":{"x_min":-58.09375,"x_max":437.453125,"ha":379,"o":"m 93 416 l -3 359 l -58 455 l 93 544 l 93 1002 l 285 1002 l 285 656 l 383 714 l 437 617 l 285 528 l 285 0 l 93 0 l 93 416 "},"ÿ":{"x_min":12.078125,"x_max":591.90625,"ha":604,"o":"m 498 969 l 498 819 l 347 819 l 347 969 l 498 969 m 257 969 l 257 819 l 106 819 l 106 969 l 257 969 m 198 -5 l 12 701 l 202 701 l 300 208 l 303 208 l 406 701 l 591 701 l 326 -265 l 125 -265 l 198 -5 "},"Ł":{"x_min":-40.9375,"x_max":600.609375,"ha":605,"o":"m 87 391 l 13 348 l -40 444 l 87 521 l 87 1002 l 293 1002 l 293 641 l 419 715 l 474 619 l 293 512 l 293 167 l 600 167 l 600 0 l 87 0 l 87 391 "},"í":{"x_min":72.578125,"x_max":378.921875,"ha":379,"o":"m 378 1002 l 161 804 l 72 804 l 195 1002 l 378 1002 m 285 0 l 93 0 l 93 701 l 285 701 l 285 0 "},"ˆ":{"x_min":-32.671875,"x_max":409.6875,"ha":378,"o":"m 187 927 l 91 804 l -32 804 l 111 1003 l 262 1003 l 409 804 l 283 804 l 187 927 "},"w":{"x_min":14.96875,"x_max":1043.96875,"ha":1059,"o":"m 14 701 l 205 701 l 299 174 l 302 174 l 434 701 l 632 701 l 754 174 l 756 174 l 860 701 l 1043 701 l 857 0 l 656 0 l 532 479 l 529 479 l 390 0 l 186 0 l 14 701 "},"$":{"x_min":14,"x_max":590,"ha":605,"o":"m 272 837 q 228 805 242 827 q 214 742 214 784 q 229 679 214 710 q 272 626 245 648 l 272 837 m 331 131 q 382 162 363 138 q 402 234 402 186 q 382 309 402 280 q 331 362 362 338 l 331 131 m 272 401 q 187 455 231 426 q 108 523 144 484 q 49 612 72 562 q 26 730 26 663 q 45 836 26 791 q 97 911 64 881 q 175 959 130 942 q 272 981 220 975 l 272 1088 l 331 1088 l 331 980 q 448 961 402 980 q 523 908 495 943 q 563 821 551 873 q 574 701 574 769 l 395 701 q 393 744 395 721 q 384 785 391 766 q 364 818 377 805 q 331 837 351 832 l 331 587 q 417 534 371 562 q 501 469 463 506 q 564 379 539 431 q 590 252 590 328 q 569 129 590 178 q 514 49 549 79 q 431 3 479 18 q 331 -11 384 -11 l 331 -132 l 272 -132 l 272 -12 q 139 10 189 -12 q 60 71 88 32 q 23 167 33 111 q 14 293 14 223 l 203 293 q 203 241 203 268 q 209 192 203 215 q 229 152 215 169 q 272 131 244 136 l 272 401 "},"\\":{"x_min":-112.96875,"x_max":451.890625,"ha":340,"o":"m 32 1002 l 451 0 l 306 0 l -112 1002 l 32 1002 "},"Ì":{"x_min":0.25,"x_max":306.96875,"ha":379,"o":"m 184 1303 l 306 1105 l 218 1105 l 0 1303 l 184 1303 m 86 0 l 86 1002 l 292 1002 l 292 0 l 86 0 "},"µ":{"x_min":76,"x_max":604,"ha":680,"o":"m 412 71 l 409 71 q 348 6 383 27 q 268 -14 314 -14 l 268 -265 l 76 -265 l 76 701 l 268 701 l 268 215 q 280 137 268 168 q 340 107 293 107 q 399 137 386 107 q 412 215 412 168 l 412 701 l 604 701 l 604 0 l 412 0 l 412 71 "},"Ç":{"x_min":82,"x_max":712,"ha":757,"o":"m 500 685 q 480 827 500 785 q 413 869 461 869 q 343 847 369 869 q 302 781 316 825 q 289 666 289 737 q 289 500 289 596 q 289 335 289 405 q 302 220 289 264 q 343 154 316 176 q 414 133 369 133 q 469 153 450 133 q 497 205 489 174 q 506 271 506 235 q 506 337 506 307 l 712 337 q 692 169 712 237 q 635 59 673 100 q 542 0 597 17 q 414 -17 487 -17 l 405 -17 l 357 -80 l 360 -83 q 374 -79 367 -80 q 390 -78 382 -78 q 436 -84 413 -78 q 476 -103 458 -90 q 505 -136 494 -116 q 516 -182 516 -155 q 501 -241 516 -216 q 463 -282 487 -266 q 410 -306 439 -298 q 351 -314 381 -314 q 280 -303 316 -314 q 211 -278 244 -293 l 237 -222 q 280 -238 259 -231 q 325 -245 302 -245 q 353 -242 338 -245 q 380 -233 368 -239 q 400 -215 393 -226 q 408 -187 408 -204 q 394 -155 408 -167 q 362 -141 380 -144 q 324 -140 344 -137 q 291 -148 305 -143 l 261 -122 l 343 -12 q 231 20 276 -4 q 157 82 186 45 q 112 166 127 119 q 89 267 96 213 q 82 380 82 321 q 82 501 82 439 q 82 694 82 601 q 113 859 82 787 q 214 975 144 931 q 410 1019 283 1019 q 636 933 568 1019 q 704 685 704 848 l 500 685 "},"’":{"x_min":35.390625,"x_max":265.421875,"ha":302,"o":"m 83 1003 l 265 1003 l 166 729 l 35 729 l 83 1003 "},"-":{"x_min":60,"x_max":393,"ha":453,"o":"m 393 446 l 393 304 l 60 304 l 60 446 l 393 446 "},"Q":{"x_min":82,"x_max":827,"ha":832,"o":"m 415 140 q 487 161 460 140 q 527 226 513 183 q 542 338 542 270 q 542 501 542 406 q 542 666 542 596 q 527 781 542 737 q 487 847 513 825 q 415 869 460 869 q 343 847 370 869 q 303 781 317 825 q 289 666 289 737 q 289 501 289 596 q 289 338 289 406 q 303 226 289 270 q 343 161 317 183 q 415 140 370 140 m 827 0 l 536 0 q 507 -1 522 0 q 478 -4 493 -2 q 448 -8 463 -7 q 418 -10 433 -10 q 239 20 306 -10 q 138 114 173 51 q 92 273 103 177 q 82 501 82 370 q 82 694 82 601 q 113 859 82 787 q 216 975 145 931 q 415 1019 286 1019 q 614 975 544 1019 q 717 859 685 931 q 749 694 749 787 q 749 501 749 601 q 741 360 749 420 q 721 256 734 301 q 686 180 708 212 q 634 121 664 148 l 637 119 q 663 128 648 121 q 692 140 678 134 q 719 149 706 145 q 741 154 732 154 l 827 154 l 827 0 "},"M":{"x_min":82,"x_max":1052,"ha":1134,"o":"m 82 0 l 82 1002 l 412 1002 l 566 321 l 569 321 l 732 1002 l 1052 1002 l 1052 0 l 852 0 l 852 773 l 849 773 l 660 0 l 464 0 l 284 773 l 282 773 l 282 0 l 82 0 "},"C":{"x_min":82,"x_max":712,"ha":757,"o":"m 412 -17 q 215 26 285 -17 q 113 143 145 70 q 82 309 82 216 q 82 500 82 402 q 82 694 82 600 q 113 859 82 787 q 214 975 144 931 q 410 1019 283 1019 q 636 933 568 1019 q 704 685 704 848 l 500 685 q 480 827 500 785 q 413 869 461 869 q 343 847 369 869 q 302 781 316 825 q 289 666 289 737 q 289 500 289 596 q 289 335 289 405 q 302 220 289 264 q 343 154 316 176 q 414 133 369 133 q 469 153 450 133 q 497 205 489 174 q 506 271 506 235 q 506 337 506 307 l 712 337 q 692 169 712 237 q 635 59 673 100 q 541 0 596 17 q 412 -17 485 -17 "},"œ":{"x_min":60,"x_max":1012.5,"ha":1059,"o":"m 818 429 q 818 483 818 453 q 809 537 818 512 q 782 578 801 562 q 730 594 764 594 q 679 576 697 594 q 653 533 661 559 q 645 479 645 508 q 645 429 645 451 l 818 429 m 339 110 q 399 121 376 110 q 435 160 422 131 q 448 239 448 188 q 448 370 448 290 q 448 466 448 424 q 437 535 448 508 q 403 576 426 562 q 341 590 380 590 q 292 576 309 590 q 265 535 275 562 q 256 466 256 508 q 256 370 256 424 q 256 239 256 290 q 265 160 256 188 q 293 121 275 131 q 339 110 311 110 m 645 319 q 645 251 645 287 q 653 183 645 214 q 679 131 661 152 q 729 110 697 110 q 772 122 756 110 q 797 151 788 133 q 809 191 806 169 q 813 235 813 213 l 1005 235 q 937 53 1005 120 q 732 -14 869 -14 q 671 -9 700 -14 q 615 7 641 -5 q 565 45 588 20 q 526 108 543 69 q 490 52 511 76 q 443 14 468 29 q 391 -7 417 0 q 340 -14 364 -14 q 192 13 247 -14 q 106 90 136 41 q 68 208 77 140 q 60 359 60 277 q 68 496 60 431 q 104 609 76 560 q 189 686 133 658 q 340 714 245 714 q 399 710 368 714 q 458 695 430 706 q 511 664 487 684 q 552 613 536 645 q 588 664 567 644 q 634 695 609 684 q 682 710 658 706 q 730 715 707 715 q 883 684 826 715 q 969 601 940 653 q 1005 476 997 548 q 1012 319 1012 403 l 645 319 "},"!":{"x_min":144,"x_max":307,"ha":453,"o":"m 307 167 l 307 0 l 144 0 l 144 167 l 307 167 m 306 268 l 145 268 l 145 1002 l 306 1002 l 306 268 "},"ç":{"x_min":60,"x_max":621,"ha":681,"o":"m 426 451 q 405 560 426 530 q 340 590 385 590 q 292 576 309 590 q 265 535 275 562 q 256 466 256 508 q 256 370 256 424 q 256 239 256 289 q 265 160 256 188 q 292 121 275 131 q 338 110 310 110 q 406 149 384 110 q 429 258 429 188 l 621 258 q 556 55 621 121 q 371 -10 492 -10 l 319 -80 l 322 -83 q 336 -79 329 -80 q 352 -78 344 -78 q 398 -84 375 -78 q 438 -103 420 -90 q 467 -136 456 -116 q 478 -182 478 -155 q 463 -241 478 -216 q 425 -282 449 -266 q 372 -306 401 -298 q 313 -314 343 -314 q 241 -303 277 -314 q 172 -278 205 -293 l 198 -222 q 242 -238 220 -231 q 287 -245 264 -245 q 315 -242 300 -245 q 342 -233 330 -239 q 362 -215 355 -226 q 370 -187 370 -204 q 356 -155 370 -167 q 324 -141 342 -144 q 286 -140 306 -137 q 253 -148 266 -143 l 223 -122 l 304 -8 q 176 20 224 -8 q 102 98 128 50 q 68 213 76 147 q 60 358 60 280 q 68 495 60 430 q 104 609 76 560 q 189 686 133 657 q 340 714 245 714 q 545 651 472 714 q 618 451 618 588 l 426 451 "},"È":{"x_min":86,"x_max":633.640625,"ha":681,"o":"m 335 1303 l 458 1105 l 369 1105 l 151 1303 l 335 1303 m 86 0 l 86 1002 l 622 1002 l 622 848 l 292 848 l 292 601 l 596 601 l 596 447 l 292 447 l 292 154 l 633 154 l 633 0 l 86 0 "},"ﬁ":{"x_min":0,"x_max":604,"ha":680,"o":"m 604 1002 l 604 848 l 412 848 l 412 1002 l 604 1002 m 604 0 l 412 0 l 412 701 l 604 701 l 604 0 m 372 883 q 295 859 313 883 q 278 784 278 836 l 278 701 l 368 701 l 368 580 l 278 580 l 278 0 l 86 0 l 86 580 l 0 580 l 0 701 l 87 701 q 87 833 87 775 q 105 929 87 890 q 169 987 124 967 q 303 1007 214 1007 q 337 1007 321 1007 q 372 1007 354 1007 l 372 883 "},"{":{"x_min":-43,"x_max":328,"ha":374,"o":"m 69 867 q 103 1003 69 958 q 226 1048 138 1048 l 327 1048 l 327 938 q 272 924 293 938 q 239 890 251 911 q 224 842 228 870 q 220 785 220 814 l 220 630 q 198 513 220 556 q 108 455 177 470 l 108 452 q 166 429 144 447 q 200 386 188 412 q 215 329 211 361 q 220 265 220 298 l 220 93 q 224 39 220 66 q 239 -8 228 12 q 272 -44 251 -30 q 328 -58 293 -58 l 328 -168 l 239 -168 q 154 -155 187 -168 q 101 -117 120 -142 q 75 -52 82 -91 q 69 37 69 -13 l 69 254 q 63 309 69 284 q 45 353 58 334 q 10 382 32 372 q -43 393 -10 393 l -43 514 q 10 525 -10 514 q 45 557 32 537 q 63 602 58 577 q 69 653 69 627 l 69 867 "},"X":{"x_min":4.078125,"x_max":751.328125,"ha":757,"o":"m 21 1002 l 255 1002 l 396 673 l 533 1002 l 747 1002 l 502 506 l 751 0 l 518 0 l 367 345 l 216 0 l 4 0 l 258 524 l 21 1002 "},"ô":{"x_min":60,"x_max":621,"ha":681,"o":"m 339 927 l 242 804 l 118 804 l 262 1002 l 414 1002 l 561 804 l 434 804 l 339 927 m 340 110 q 386 121 367 110 q 414 160 404 131 q 425 239 425 188 q 425 370 425 290 q 425 466 425 424 q 415 535 425 508 q 388 576 405 562 q 340 590 370 590 q 292 576 309 590 q 265 535 275 562 q 256 466 256 508 q 256 370 256 424 q 256 239 256 290 q 266 160 256 188 q 293 121 276 131 q 340 110 311 110 m 340 -14 q 192 13 247 -14 q 106 90 136 41 q 68 208 77 140 q 60 359 60 277 q 68 496 60 431 q 104 609 76 560 q 189 686 133 658 q 340 714 245 714 q 491 686 435 714 q 576 609 547 658 q 612 496 604 560 q 621 359 621 431 q 612 208 621 277 q 574 90 603 140 q 488 13 544 41 q 340 -14 433 -14 "},"¼":{"x_min":34.203125,"x_max":860,"ha":906,"o":"m 704 222 l 704 500 l 705 500 l 593 222 l 704 222 m 34 884 q 99 924 68 902 q 153 982 130 947 l 272 982 l 272 393 l 139 393 l 139 840 q 88 805 115 820 q 34 776 61 790 l 34 884 m 274 -38 l 190 -38 l 548 1017 l 637 1017 l 274 -38 m 689 0 l 689 132 l 498 132 l 498 249 q 583 440 553 373 q 628 538 613 506 q 645 575 642 569 q 648 581 648 581 l 812 581 l 812 222 l 860 222 l 860 132 l 812 132 l 812 0 l 689 0 "},"#":{"x_min":-3,"x_max":607,"ha":604,"o":"m 234 410 l 350 410 l 369 559 l 253 559 l 234 410 m 99 268 l -3 268 l -3 410 l 117 410 l 136 559 l 37 559 l 37 701 l 153 701 l 187 968 l 304 968 l 270 701 l 387 701 l 421 968 l 538 968 l 504 701 l 607 701 l 607 559 l 486 559 l 467 410 l 567 410 l 567 268 l 450 268 l 416 0 l 299 0 l 333 268 l 216 268 l 182 0 l 65 0 l 99 268 "},"Ê":{"x_min":86,"x_max":633.640625,"ha":681,"o":"m 339 1228 l 242 1105 l 118 1105 l 263 1303 l 414 1303 l 561 1105 l 434 1105 l 339 1228 m 86 0 l 86 1002 l 622 1002 l 622 848 l 292 848 l 292 601 l 596 601 l 596 447 l 292 447 l 292 154 l 633 154 l 633 0 l 86 0 "},")":{"x_min":81.53125,"x_max":333,"ha":378,"o":"m 81 -168 q 112 -34 96 -104 q 140 112 127 36 q 161 268 153 188 q 170 430 170 348 q 160 606 170 523 q 138 765 150 689 q 109 911 125 841 q 81 1048 93 981 l 189 1048 q 238 897 213 974 q 284 741 263 820 q 319 584 305 663 q 333 428 333 505 q 318 267 333 351 q 281 105 303 184 q 234 -44 259 26 q 189 -168 209 -115 l 81 -168 "},"Å":{"x_min":10.953125,"x_max":820.6875,"ha":832,"o":"m 336 1201 q 359 1142 336 1166 q 416 1119 382 1119 q 473 1142 449 1119 q 497 1201 497 1166 q 473 1258 497 1234 q 416 1283 449 1283 q 359 1258 382 1283 q 336 1201 336 1234 m 406 809 l 404 809 l 310 376 l 506 376 l 406 809 m 558 1201 q 547 1145 558 1171 q 516 1099 536 1119 q 470 1068 496 1079 q 416 1057 445 1057 q 362 1068 387 1057 q 316 1099 336 1079 q 285 1145 296 1119 q 275 1201 275 1171 q 285 1256 275 1230 q 316 1302 296 1282 q 362 1333 336 1321 q 416 1345 387 1345 q 470 1333 445 1345 q 516 1302 496 1321 q 547 1256 536 1282 q 558 1201 558 1230 m 10 0 l 283 1002 l 553 1002 l 820 0 l 604 0 l 549 222 l 269 222 l 213 0 l 10 0 "},"ø":{"x_min":9.640625,"x_max":671.359375,"ha":681,"o":"m 259 198 q 287 128 268 145 q 342 110 307 110 q 387 121 369 110 q 415 160 405 131 q 425 239 425 188 q 425 370 425 290 q 425 394 425 383 q 427 413 425 405 l 259 198 m 420 503 q 395 569 413 548 q 339 590 377 590 q 289 576 307 590 q 262 535 272 562 q 253 466 253 508 q 253 370 253 424 q 253 326 253 347 q 253 288 253 305 l 420 503 m 57 -61 l 9 -23 l 103 97 q 68 212 76 145 q 60 359 60 278 q 68 496 60 431 q 104 609 76 560 q 189 686 133 658 q 340 714 245 714 q 458 698 409 714 q 539 653 506 683 l 625 762 l 671 724 l 577 605 q 612 493 604 556 q 621 359 621 430 q 612 208 621 277 q 573 90 603 140 q 488 13 544 41 q 340 -14 433 -14 q 220 1 268 -14 q 141 47 172 17 l 57 -61 "},"â":{"x_min":56,"x_max":607.53125,"ha":681,"o":"m 410 336 q 344 336 374 336 q 290 325 313 336 q 256 290 268 315 q 244 218 244 266 q 246 179 244 199 q 255 144 248 160 q 277 117 262 127 q 314 107 291 107 q 376 132 356 107 q 403 194 396 158 q 410 270 410 230 q 410 336 410 309 m 339 927 l 242 804 l 118 804 l 262 1002 l 414 1002 l 561 804 l 434 804 l 339 927 m 598 130 q 601 65 598 98 q 607 0 604 31 l 429 0 l 420 93 l 418 93 q 343 12 386 38 q 238 -13 301 -13 q 153 4 188 -13 q 96 52 118 22 q 65 124 75 82 q 56 211 56 165 q 85 348 56 299 q 165 420 115 397 q 279 444 215 444 q 410 444 343 444 l 410 499 q 407 541 410 522 q 397 575 405 560 q 373 597 389 589 q 332 605 358 605 q 292 595 307 605 q 270 572 277 586 q 262 538 264 557 q 260 498 260 518 l 72 498 q 90 603 72 561 q 142 669 108 645 q 221 704 175 694 q 322 715 267 715 q 468 696 414 715 q 551 645 523 677 q 589 570 580 613 q 598 480 598 527 l 598 130 "},"}":{"x_min":53,"x_max":424,"ha":374,"o":"m 312 653 q 317 602 312 627 q 335 557 322 577 q 370 525 348 537 q 424 514 391 514 l 424 393 q 370 382 391 393 q 335 353 348 372 q 317 309 322 334 q 312 254 312 284 l 312 37 q 305 -52 312 -13 q 279 -117 298 -91 q 226 -155 260 -142 q 141 -168 193 -168 l 53 -168 l 53 -58 q 108 -44 87 -58 q 141 -8 129 -30 q 156 39 152 12 q 161 93 161 66 l 161 265 q 165 329 161 298 q 180 386 169 361 q 214 429 192 412 q 273 452 236 447 l 273 455 q 182 513 203 470 q 161 630 161 556 l 161 785 q 156 842 161 814 q 141 890 152 870 q 108 924 129 911 q 53 938 87 938 l 53 1048 l 154 1048 q 277 1003 242 1048 q 312 867 312 958 l 312 653 "},"‰":{"x_min":91,"x_max":1270,"ha":1361,"o":"m 253 601 q 285 611 274 601 q 303 643 297 621 q 309 698 309 664 q 309 779 309 732 q 309 817 309 796 q 304 857 309 837 q 287 889 299 876 q 253 903 274 903 q 218 889 229 903 q 201 857 206 876 q 197 817 197 837 q 197 779 197 796 q 197 698 197 732 q 202 643 197 664 q 220 611 208 621 q 253 601 232 601 m 703 61 q 736 71 724 61 q 753 103 747 81 q 759 158 759 124 q 759 239 759 192 q 759 277 759 256 q 754 317 759 297 q 737 349 749 336 q 703 363 725 363 q 668 349 680 363 q 652 317 657 336 q 648 277 648 297 q 648 239 648 256 q 648 158 648 192 q 653 103 648 124 q 670 71 659 81 q 703 61 682 61 m 1108 61 q 1140 71 1129 61 q 1158 103 1152 81 q 1164 158 1164 124 q 1164 239 1164 192 q 1164 277 1164 256 q 1159 317 1164 297 q 1142 349 1154 336 q 1108 363 1129 363 q 1073 349 1084 363 q 1056 317 1061 336 q 1052 277 1052 297 q 1052 239 1052 256 q 1052 158 1052 192 q 1057 103 1052 124 q 1075 71 1063 81 q 1108 61 1087 61 m 253 981 q 337 961 306 981 q 386 909 368 942 q 409 835 404 876 q 415 749 415 793 q 410 661 415 702 q 390 589 406 620 q 341 541 374 559 q 253 523 308 523 q 164 541 197 523 q 115 589 131 559 q 95 661 99 620 q 91 749 91 702 q 96 835 91 793 q 119 909 101 876 q 168 961 137 942 q 253 981 199 981 m 703 441 q 787 421 756 441 q 836 369 818 402 q 859 295 854 336 q 865 209 865 253 q 860 121 865 162 q 840 49 856 80 q 791 1 824 19 q 703 -17 759 -17 q 615 1 647 -17 q 566 49 582 19 q 546 121 550 80 q 542 209 542 162 q 547 295 542 253 q 570 369 552 336 q 619 421 588 402 q 703 441 650 441 m 1108 441 q 1192 421 1161 441 q 1241 369 1223 402 q 1264 295 1259 336 q 1270 209 1270 253 q 1265 121 1270 162 q 1245 49 1261 80 q 1196 1 1229 19 q 1108 -17 1163 -17 q 1019 1 1052 -17 q 970 49 986 19 q 950 121 954 80 q 946 209 946 162 q 951 295 946 253 q 974 369 956 336 q 1023 421 992 402 q 1108 441 1054 441 m 653 1040 l 769 1040 l 309 -62 l 192 -62 l 653 1040 "},"Ä":{"x_min":10.390625,"x_max":820.25,"ha":831,"o":"m 371 1270 l 371 1120 l 220 1120 l 220 1270 l 371 1270 m 612 1270 l 612 1120 l 461 1120 l 461 1270 l 612 1270 m 406 809 l 403 809 l 309 376 l 505 376 l 406 809 m 10 0 l 282 1002 l 553 1002 l 820 0 l 603 0 l 549 222 l 268 222 l 213 0 l 10 0 "},"¸":{"x_min":21.640625,"x_max":327,"ha":379,"o":"m 47 -222 q 91 -238 69 -231 q 135 -245 112 -245 q 164 -242 149 -245 q 191 -233 179 -239 q 211 -215 204 -226 q 219 -187 219 -204 q 205 -155 219 -167 q 173 -141 191 -144 q 135 -140 155 -137 q 101 -148 115 -143 l 72 -122 l 161 0 l 228 0 l 168 -80 l 171 -83 q 185 -79 178 -80 q 201 -78 193 -78 q 247 -84 224 -78 q 287 -103 269 -90 q 316 -136 305 -116 q 327 -182 327 -155 q 312 -241 327 -216 q 274 -282 298 -266 q 221 -306 250 -298 q 162 -314 192 -314 q 90 -303 126 -314 q 21 -278 54 -293 l 47 -222 "},"a":{"x_min":56,"x_max":607.53125,"ha":681,"o":"m 410 336 q 344 336 374 336 q 290 325 313 336 q 256 290 268 315 q 244 218 244 266 q 246 179 244 199 q 255 144 248 160 q 277 117 262 127 q 314 107 291 107 q 376 132 356 107 q 403 194 396 158 q 410 270 410 230 q 410 336 410 309 m 598 130 q 601 65 598 98 q 607 0 604 31 l 429 0 l 420 93 l 418 93 q 343 12 386 38 q 238 -13 301 -13 q 153 4 188 -13 q 96 52 118 22 q 65 124 75 82 q 56 211 56 165 q 85 348 56 299 q 165 420 115 397 q 279 444 215 444 q 410 444 343 444 l 410 499 q 407 541 410 522 q 397 575 405 560 q 373 597 389 589 q 332 605 358 605 q 292 595 307 605 q 270 572 277 586 q 262 538 264 557 q 260 498 260 518 l 72 498 q 90 603 72 561 q 142 669 108 645 q 221 704 175 694 q 322 715 267 715 q 468 696 414 715 q 551 645 523 677 q 589 570 580 613 q 598 480 598 527 l 598 130 "},"—":{"x_min":0,"x_max":1361,"ha":1361,"o":"m 0 429 l 1361 429 l 1361 319 l 0 319 l 0 429 "},"=":{"x_min":34,"x_max":647,"ha":681,"o":"m 647 137 l 34 137 l 34 291 l 647 291 l 647 137 m 647 409 l 34 409 l 34 563 l 647 563 l 647 409 "},"N":{"x_min":87,"x_max":821,"ha":908,"o":"m 87 0 l 87 1002 l 364 1002 l 626 308 l 629 308 l 629 1002 l 821 1002 l 821 0 l 550 0 l 281 733 l 279 733 l 279 0 l 87 0 "},"˚":{"x_min":48,"x_max":331,"ha":379,"o":"m 109 899 q 132 840 109 864 q 189 817 155 817 q 246 840 222 817 q 270 899 270 864 q 246 957 270 933 q 189 982 222 982 q 132 957 155 982 q 109 899 109 933 m 331 899 q 320 843 331 870 q 289 797 309 817 q 243 766 269 777 q 189 755 218 755 q 135 766 160 755 q 89 797 109 777 q 58 843 69 817 q 48 899 48 870 q 58 955 48 928 q 89 1000 69 981 q 135 1032 109 1020 q 189 1044 160 1044 q 243 1032 218 1044 q 289 1000 269 1020 q 320 955 309 981 q 331 899 331 928 "},"ú":{"x_min":76,"x_max":607,"ha":681,"o":"m 529 1002 l 311 804 l 223 804 l 345 1002 l 529 1002 m 412 71 l 409 71 q 341 5 379 23 q 247 -14 303 -14 q 182 -3 213 -14 q 127 26 150 6 q 90 74 104 45 q 76 138 76 102 l 76 701 l 268 701 l 268 215 q 280 137 268 168 q 340 107 293 107 q 399 137 386 107 q 412 215 412 168 l 412 701 l 607 701 l 607 138 q 607 69 607 104 q 607 0 607 34 l 412 0 l 412 71 "},"⁄":{"x_min":-108.890625,"x_max":337.5625,"ha":227,"o":"m -24 -39 l -108 -39 l 249 1018 l 337 1018 l -24 -39 "},"2":{"x_min":16,"x_max":580,"ha":605,"o":"m 16 0 l 16 170 q 146 345 91 272 q 242 473 202 419 q 309 565 282 527 q 350 633 335 603 q 371 689 365 663 q 378 745 378 715 q 362 810 378 781 q 305 840 346 840 q 259 826 276 840 q 235 793 243 813 q 225 749 227 773 q 223 701 223 724 l 26 701 q 95 909 26 837 q 295 982 164 982 q 406 968 355 982 q 493 925 456 955 q 549 847 529 895 q 570 731 570 800 q 550 621 570 677 q 501 510 531 565 q 432 403 470 455 q 354 304 394 351 q 279 218 315 258 q 217 150 243 179 l 580 150 l 580 0 l 16 0 "},"ü":{"x_min":76,"x_max":607,"ha":681,"o":"m 536 969 l 536 819 l 385 819 l 385 969 l 536 969 m 295 969 l 295 819 l 144 819 l 144 969 l 295 969 m 412 71 l 409 71 q 341 5 379 23 q 247 -14 303 -14 q 182 -3 213 -14 q 127 26 150 6 q 90 74 104 45 q 76 138 76 102 l 76 701 l 268 701 l 268 215 q 280 137 268 168 q 340 107 293 107 q 399 137 386 107 q 412 215 412 168 l 412 701 l 607 701 l 607 138 q 607 69 607 104 q 607 0 607 34 l 412 0 l 412 71 "},"¯":{"x_min":-8,"x_max":385,"ha":378,"o":"m -8 940 l 385 940 l 385 840 l -8 840 l -8 940 "},"Z":{"x_min":30,"x_max":651,"ha":681,"o":"m 49 1002 l 641 1002 l 641 820 l 227 154 l 651 154 l 651 0 l 30 0 l 30 183 l 442 848 l 49 848 l 49 1002 "},"u":{"x_min":76,"x_max":607,"ha":681,"o":"m 412 71 l 409 71 q 341 4 380 23 q 247 -14 301 -14 q 182 -3 213 -14 q 127 26 150 6 q 90 74 104 45 q 76 138 76 102 l 76 701 l 268 701 l 268 215 q 280 137 268 168 q 340 107 293 107 q 399 137 386 107 q 412 215 412 168 l 412 701 l 607 701 l 607 138 q 607 69 607 104 q 607 0 607 34 l 412 0 l 412 71 "},"˜":{"x_min":-53.078125,"x_max":427.390625,"ha":378,"o":"m 427 982 q 411 920 421 949 q 383 868 401 891 q 343 825 367 844 q 284 807 318 807 q 228 816 255 807 q 175 838 201 825 q 125 860 149 852 q 80 868 102 868 q 42 848 54 868 q 27 807 31 829 l -53 807 q -38 866 -49 834 q -10 922 -28 897 q 31 965 6 948 q 88 982 57 982 q 145 969 118 982 q 197 945 172 956 q 243 924 221 934 q 281 915 265 915 q 325 932 310 915 q 344 982 341 949 l 427 982 "},"Ó":{"x_min":82,"x_max":749,"ha":832,"o":"m 606 1303 l 388 1105 l 299 1105 l 422 1303 l 606 1303 m 415 133 q 487 154 460 133 q 527 220 513 176 q 542 335 542 264 q 542 500 542 405 q 542 666 542 596 q 527 781 542 737 q 487 847 513 825 q 415 869 460 869 q 343 847 370 869 q 303 781 317 825 q 289 666 289 737 q 289 500 289 596 q 289 335 289 405 q 303 220 289 264 q 343 154 317 176 q 415 133 370 133 m 415 -17 q 216 26 286 -17 q 113 143 145 70 q 82 309 82 216 q 82 500 82 402 q 82 694 82 600 q 113 859 82 787 q 216 975 145 931 q 415 1019 286 1019 q 614 975 544 1019 q 717 859 685 931 q 749 694 749 787 q 749 500 749 600 q 749 309 749 402 q 717 143 749 216 q 614 26 685 70 q 415 -17 544 -17 "},"k":{"x_min":72,"x_max":661.4375,"ha":681,"o":"m 72 0 l 72 1002 l 264 1002 l 264 405 l 266 405 l 439 701 l 639 701 l 445 388 l 661 0 l 445 0 l 266 382 l 264 382 l 264 0 l 72 0 "},"ˇ":{"x_min":-32.671875,"x_max":409.6875,"ha":378,"o":"m 283 1003 l 409 1003 l 262 804 l 111 804 l -32 1003 l 91 1003 l 187 879 l 283 1003 "},"Ù":{"x_min":82,"x_max":751,"ha":833,"o":"m 411 1303 l 534 1105 l 445 1105 l 227 1303 l 411 1303 m 751 1002 l 751 291 q 733 179 751 234 q 678 80 716 124 q 575 10 639 37 q 417 -17 511 -17 q 164 66 246 -17 q 82 291 82 149 l 82 1002 l 288 1002 l 288 305 q 322 172 288 212 q 414 133 357 133 q 513 177 482 133 q 545 305 545 221 l 545 1002 l 751 1002 "},"Ÿ":{"x_min":9.140625,"x_max":746.859375,"ha":756,"o":"m 574 1270 l 574 1120 l 423 1120 l 423 1270 l 574 1270 m 333 1270 l 333 1120 l 182 1120 l 182 1270 l 333 1270 m 266 346 l 9 1002 l 233 1002 l 380 578 l 537 1002 l 746 1002 l 472 346 l 472 0 l 266 0 l 266 346 "},"€":{"x_min":6.3125,"x_max":590,"ha":604,"o":"m 73 426 l 73 530 l 6 530 l 32 644 l 76 644 l 76 674 q 141 908 76 833 q 338 984 206 984 q 457 967 409 984 q 533 918 504 950 q 576 838 563 886 q 589 726 589 789 l 422 726 q 405 804 422 778 q 341 831 389 831 q 269 793 285 831 q 254 690 254 756 l 254 645 l 471 645 l 445 530 l 253 530 l 253 426 l 423 426 l 397 309 l 254 309 l 254 274 q 271 160 254 195 q 344 126 289 126 q 408 150 392 126 q 425 235 425 175 l 590 235 q 530 40 590 102 q 338 -21 470 -21 q 212 -3 263 -21 q 131 49 162 13 q 87 141 101 85 q 74 273 74 196 l 74 309 l 6 309 l 32 426 l 73 426 "},"¢":{"x_min":22,"x_max":583,"ha":605,"o":"m 332 586 q 301 591 319 591 q 251 577 269 591 q 224 536 234 563 q 215 467 215 508 q 215 371 215 425 l 215 331 l 216 331 l 332 586 m 224 190 q 251 129 232 146 q 302 112 269 112 q 369 153 347 112 q 391 262 391 193 l 583 262 q 510 53 583 119 q 302 -12 438 -12 q 145 21 200 -12 l 92 -86 l 32 -53 l 91 62 q 34 188 47 111 q 22 360 22 265 q 30 497 22 432 q 66 610 38 561 q 151 687 95 658 q 302 715 207 715 q 386 707 349 715 l 438 821 l 498 790 l 450 686 q 580 452 580 634 l 388 452 q 379 531 388 502 l 224 190 "},"ß":{"x_min":76,"x_max":713,"ha":757,"o":"m 76 762 q 98 885 76 835 q 161 964 120 934 q 256 1006 201 994 q 375 1019 311 1019 q 478 1009 428 1019 q 566 977 528 1000 q 628 913 605 953 q 652 809 652 873 q 632 720 652 752 q 592 666 613 689 q 548 620 568 642 q 528 563 528 599 q 556 495 528 527 q 620 426 585 463 q 654 385 638 406 q 683 338 670 363 q 704 284 696 313 q 713 220 713 255 q 640 48 713 110 q 439 -14 567 -14 q 394 -10 416 -14 q 349 0 372 -6 l 349 142 q 379 137 364 138 q 409 136 394 136 q 452 138 431 136 q 489 149 473 141 q 515 173 505 158 q 525 215 525 188 q 496 294 525 255 q 432 374 468 334 q 368 458 397 416 q 340 546 340 500 q 359 609 340 585 q 402 656 379 632 q 444 710 425 679 q 464 792 464 740 q 443 865 464 836 q 375 895 423 895 q 318 880 340 895 q 284 847 296 865 q 268 810 272 828 q 264 784 264 792 l 264 0 l 76 0 l 76 762 "},"é":{"x_min":60,"x_max":622.5,"ha":681,"o":"m 428 429 q 428 483 428 453 q 419 537 428 512 q 392 578 411 562 q 340 594 374 594 q 289 576 307 594 q 263 533 271 559 q 255 479 255 508 q 255 429 255 451 l 428 429 m 529 1002 l 312 804 l 223 804 l 345 1002 l 529 1002 m 255 319 q 255 251 255 287 q 263 183 255 214 q 289 131 271 152 q 339 110 307 110 q 381 122 365 110 q 406 151 397 133 q 418 191 415 169 q 422 236 422 213 l 614 236 q 543 54 614 117 q 459 4 509 22 q 340 -14 408 -14 q 192 13 247 -14 q 106 90 136 41 q 68 208 77 140 q 60 359 60 277 q 68 496 60 431 q 104 609 76 560 q 189 686 133 658 q 339 715 244 715 q 493 684 436 715 q 579 601 550 653 q 615 476 607 548 q 622 319 622 403 l 255 319 "},"s":{"x_min":37,"x_max":565,"ha":604,"o":"m 226 225 q 228 179 226 201 q 237 140 230 156 q 261 115 245 123 q 306 107 278 107 q 356 125 335 107 q 377 179 377 143 q 351 240 377 216 q 289 283 326 263 q 208 320 252 302 q 127 363 164 338 q 65 425 90 388 q 40 517 40 462 q 65 612 40 574 q 128 672 90 649 q 215 705 167 695 q 309 715 263 715 q 402 702 357 715 q 480 664 447 690 q 531 597 513 638 q 550 500 550 556 l 361 500 q 342 589 361 571 q 320 602 332 599 q 293 605 308 605 q 244 585 261 605 q 228 530 228 566 q 253 483 228 502 q 315 445 278 463 q 396 408 352 427 q 477 361 439 388 q 539 294 514 333 q 565 199 565 255 q 547 115 565 154 q 496 47 529 76 q 415 1 463 17 q 308 -14 368 -14 q 195 -4 246 -14 q 108 31 144 5 q 54 104 72 58 q 37 225 37 151 l 226 225 "},"B":{"x_min":88,"x_max":755,"ha":831,"o":"m 294 592 l 431 592 q 466 598 447 592 q 502 619 485 604 q 528 658 518 633 q 539 719 539 683 q 505 811 539 775 q 420 848 472 848 l 294 848 l 294 592 m 294 154 l 407 154 q 447 156 424 154 q 494 172 471 158 q 532 214 516 185 q 549 295 549 242 q 519 399 549 361 q 413 438 490 438 l 294 438 l 294 154 m 88 1 l 88 1002 l 453 1002 q 563 991 511 1002 q 655 952 616 981 q 716 873 694 924 q 739 742 739 822 q 697 596 739 654 q 571 521 655 537 l 571 518 q 661 489 625 510 q 717 434 696 468 q 746 358 738 401 q 755 263 755 314 q 738 154 755 199 q 695 80 722 109 q 635 34 669 51 q 568 9 602 17 q 503 1 534 1 q 451 1 473 1 l 88 1 "},"…":{"x_min":146,"x_max":1215,"ha":1361,"o":"m 762 183 l 762 0 l 599 0 l 599 183 l 762 183 m 1215 183 l 1215 0 l 1052 0 l 1052 183 l 1215 183 m 309 183 l 309 0 l 146 0 l 146 183 l 309 183 "},"?":{"x_min":53,"x_max":554,"ha":604,"o":"m 211 0 l 211 167 l 374 167 l 374 0 l 211 0 m 221 267 l 221 410 q 244 502 221 456 q 294 593 267 547 q 343 685 321 639 q 366 777 366 731 q 350 847 366 818 q 286 877 334 877 q 243 863 258 877 q 221 829 228 850 q 215 783 215 808 q 215 734 215 757 l 53 734 q 53 820 53 771 q 77 913 53 868 q 153 988 101 957 q 304 1019 205 1019 q 402 1004 356 1019 q 481 961 448 989 q 534 890 515 932 q 554 792 554 848 q 524 647 554 706 q 457 543 494 588 q 421 499 439 520 q 390 457 404 478 q 369 414 377 436 q 361 367 361 392 l 361 267 l 221 267 "},"H":{"x_min":93,"x_max":740,"ha":833,"o":"m 534 601 l 534 1002 l 740 1002 l 740 0 l 534 0 l 534 447 l 299 447 l 299 0 l 93 0 l 93 1002 l 299 1002 l 299 601 l 534 601 "},"î":{"x_min":-32.234375,"x_max":410.21875,"ha":379,"o":"m 188 927 l 91 804 l -32 804 l 112 1002 l 263 1002 l 410 804 l 283 804 l 188 927 m 285 0 l 93 0 l 93 701 l 285 701 l 285 0 "},"c":{"x_min":60,"x_max":621,"ha":681,"o":"m 426 451 q 405 560 426 530 q 340 590 385 590 q 292 576 309 590 q 265 535 275 562 q 256 466 256 508 q 256 370 256 424 q 256 239 256 290 q 265 160 256 188 q 292 121 275 131 q 338 110 310 110 q 406 149 384 110 q 429 258 429 188 l 621 258 q 548 50 621 115 q 340 -14 476 -14 q 192 13 247 -14 q 106 90 136 41 q 68 208 77 140 q 60 359 60 277 q 68 496 60 431 q 104 609 76 560 q 189 686 133 658 q 340 714 245 714 q 545 651 472 714 q 618 451 618 588 l 426 451 "},"¶":{"x_min":27.296875,"x_max":720,"ha":749,"o":"m 497 836 l 404 836 l 404 -133 l 241 -133 l 241 518 q 81 584 134 518 q 27 755 27 651 q 45 873 27 826 q 99 949 64 921 q 185 990 134 977 q 299 1003 235 1003 l 720 1003 l 720 836 l 660 836 l 660 -133 l 497 -133 l 497 836 "},"−":{"x_min":34,"x_max":647,"ha":681,"o":"m 34 428 l 647 428 l 647 274 l 34 274 l 34 428 "},"•":{"x_min":41,"x_max":531,"ha":572,"o":"m 531 500 q 511 403 531 449 q 460 323 492 357 q 382 270 427 289 q 286 251 337 251 q 189 270 234 251 q 111 323 144 289 q 60 403 79 357 q 41 500 41 449 q 60 598 41 552 q 111 678 79 644 q 189 731 144 712 q 286 751 234 751 q 382 731 337 751 q 460 678 427 712 q 511 598 492 644 q 531 500 531 552 "},"¥":{"x_min":-54.046875,"x_max":657.703125,"ha":605,"o":"m 14 259 l 198 259 l 198 370 l 14 370 l 14 494 l 154 494 l -54 969 l 169 969 l 305 593 l 449 969 l 657 969 l 436 494 l 591 494 l 591 370 l 390 370 l 390 259 l 591 259 l 591 135 l 390 135 l 390 0 l 198 0 l 198 135 l 14 135 l 14 259 "},"(":{"x_min":45,"x_max":296.46875,"ha":378,"o":"m 296 1048 q 265 914 281 984 q 237 767 250 843 q 216 611 224 691 q 208 449 208 531 q 217 273 208 356 q 239 114 227 190 q 268 -31 252 38 q 296 -168 284 -101 l 188 -168 q 139 -18 164 -95 q 93 138 114 59 q 58 295 72 216 q 45 451 45 374 q 59 612 45 528 q 96 774 74 695 q 143 924 118 853 q 188 1048 168 995 l 296 1048 "},"U":{"x_min":82,"x_max":751,"ha":833,"o":"m 751 1002 l 751 291 q 733 179 751 234 q 678 80 716 124 q 575 10 639 37 q 417 -17 511 -17 q 164 66 246 -17 q 82 291 82 149 l 82 1002 l 288 1002 l 288 305 q 322 172 288 212 q 414 133 357 133 q 513 177 482 133 q 545 305 545 221 l 545 1002 l 751 1002 "},"Ñ":{"x_min":87,"x_max":821,"ha":908,"o":"m 693 1283 q 677 1221 687 1250 q 649 1169 667 1192 q 608 1126 633 1145 q 550 1108 584 1108 q 494 1117 521 1108 q 441 1139 466 1126 q 391 1161 415 1153 q 345 1169 367 1169 q 308 1149 319 1169 q 292 1108 296 1130 l 212 1108 q 226 1167 216 1135 q 254 1223 236 1198 q 297 1266 272 1249 q 353 1283 322 1283 q 411 1270 383 1283 q 462 1246 438 1257 q 509 1225 487 1235 q 547 1216 530 1216 q 591 1233 575 1216 q 609 1283 607 1250 l 693 1283 m 87 0 l 87 1002 l 364 1002 l 626 308 l 629 308 l 629 1002 l 821 1002 l 821 0 l 550 0 l 281 733 l 279 733 l 279 0 l 87 0 "},"F":{"x_min":82,"x_max":592.890625,"ha":605,"o":"m 82 0 l 82 1002 l 592 1002 l 592 848 l 288 848 l 288 591 l 579 591 l 579 437 l 288 437 l 288 0 l 82 0 "},"­":{"x_min":60,"x_max":393,"ha":453,"o":"m 393 446 l 393 304 l 60 304 l 60 446 l 393 446 "},":":{"x_min":69,"x_max":232,"ha":301,"o":"m 232 0 l 69 0 l 69 183 l 232 183 l 232 0 m 232 701 l 232 518 l 69 518 l 69 701 l 232 701 "},"Û":{"x_min":82,"x_max":751,"ha":833,"o":"m 415 1228 l 319 1105 l 195 1105 l 339 1303 l 490 1303 l 637 1105 l 511 1105 l 415 1228 m 751 1002 l 751 291 q 733 179 751 234 q 678 80 716 124 q 575 10 639 37 q 417 -17 511 -17 q 164 66 246 -17 q 82 291 82 149 l 82 1002 l 288 1002 l 288 305 q 322 172 288 212 q 414 133 357 133 q 513 177 482 133 q 545 305 545 221 l 545 1002 l 751 1002 "},"*":{"x_min":44,"x_max":561,"ha":605,"o":"m 224 490 l 109 562 l 230 719 l 44 694 l 44 828 l 230 805 l 120 955 l 234 1019 l 302 846 l 370 1019 l 484 955 l 374 805 l 561 828 l 561 694 l 374 719 l 495 562 l 380 490 l 302 680 l 224 490 "},"†":{"x_min":7,"x_max":598,"ha":605,"o":"m 221 789 l 221 1002 l 384 1002 l 384 789 l 598 789 l 598 654 l 384 654 l 384 0 l 221 0 l 221 654 l 7 654 l 7 789 l 221 789 "},"∕":{"x_min":-108.890625,"x_max":337.5625,"ha":227,"o":"m -24 -39 l -108 -39 l 249 1018 l 337 1018 l -24 -39 "},"°":{"x_min":68,"x_max":477,"ha":545,"o":"m 174 773 q 202 703 174 731 q 272 675 231 675 q 340 703 312 675 q 369 773 369 731 q 341 842 369 813 q 272 872 313 872 q 203 842 232 872 q 174 773 174 813 m 477 773 q 460 692 477 730 q 416 626 444 653 q 351 581 388 598 q 272 565 314 565 q 192 581 230 565 q 127 626 155 598 q 84 692 100 653 q 68 773 68 730 q 83 854 68 816 q 127 920 99 891 q 192 965 155 948 q 272 982 230 982 q 351 965 314 982 q 416 920 388 948 q 460 854 444 891 q 477 773 477 816 "},"V":{"x_min":6.8125,"x_max":749.96875,"ha":757,"o":"m 6 1002 l 220 1002 l 372 274 l 375 274 l 547 1002 l 749 1002 l 490 0 l 249 0 l 6 1002 "},"å":{"x_min":56,"x_max":607.53125,"ha":681,"o":"m 260 899 q 283 841 260 865 q 340 818 306 818 q 397 841 373 818 q 421 899 421 865 q 397 957 421 933 q 340 982 373 982 q 283 957 306 982 q 260 899 260 933 m 410 336 q 344 336 374 336 q 290 325 313 336 q 256 290 268 315 q 244 218 244 266 q 246 179 244 199 q 255 144 248 160 q 277 117 262 127 q 314 107 291 107 q 376 132 356 107 q 403 194 396 158 q 410 270 410 230 q 410 336 410 309 m 482 900 q 471 844 482 870 q 440 798 460 818 q 394 767 420 778 q 340 756 369 756 q 286 767 311 756 q 240 798 260 778 q 209 844 220 818 q 199 900 199 870 q 209 955 199 929 q 240 1001 220 981 q 286 1032 260 1020 q 340 1044 311 1044 q 394 1032 369 1044 q 440 1001 420 1020 q 471 955 460 981 q 482 900 482 929 m 598 130 q 601 65 598 98 q 607 0 604 31 l 429 0 l 421 93 l 418 93 q 343 12 386 38 q 238 -13 301 -13 q 153 4 188 -13 q 96 52 118 22 q 65 124 75 82 q 56 211 56 165 q 85 348 56 299 q 165 420 115 397 q 279 444 215 444 q 410 444 343 444 l 410 499 q 407 541 410 522 q 397 575 405 560 q 373 597 389 589 q 332 605 358 605 q 292 595 307 605 q 270 572 277 586 q 262 538 264 557 q 260 498 260 518 l 72 498 q 90 603 72 561 q 143 669 108 645 q 221 704 175 694 q 322 715 267 715 q 468 696 414 715 q 551 645 523 677 q 589 570 580 613 q 598 480 598 527 l 598 130 "}," ":{"x_min":0,"x_max":0,"ha":302},"0":{"x_min":34,"x_max":570,"ha":604,"o":"m 301 840 q 252 826 269 840 q 228 774 236 812 q 220 666 220 736 q 220 485 220 597 q 220 306 220 375 q 229 197 220 236 q 254 144 238 159 q 301 130 271 130 q 347 144 330 130 q 372 197 363 159 q 382 306 382 236 q 382 485 382 375 q 382 666 382 597 q 373 774 382 736 q 348 826 365 812 q 301 840 331 840 m 302 982 q 439 957 386 982 q 521 873 493 932 q 560 721 550 815 q 570 487 570 626 q 570 281 570 373 q 541 124 570 189 q 456 23 512 58 q 302 -12 399 -12 q 147 23 202 -12 q 62 124 91 58 q 34 281 34 189 q 34 487 34 373 q 43 721 34 626 q 82 873 53 815 q 163 957 110 932 q 302 982 215 982 "},"”":{"x_min":65.328125,"x_max":537.640625,"ha":604,"o":"m 355 1003 l 537 1003 l 438 729 l 307 729 l 355 1003 m 112 1003 l 295 1003 l 196 729 l 65 729 l 112 1003 "},"¾":{"x_min":1,"x_max":890,"ha":906,"o":"m 733 222 l 733 500 l 734 500 l 623 222 l 733 222 m 331 -38 l 247 -38 l 605 1017 l 693 1017 l 331 -38 m 9 829 q 51 951 9 916 q 105 975 73 968 q 186 982 138 982 q 313 945 271 982 q 355 826 355 909 q 350 784 355 805 q 337 745 346 763 q 311 713 327 726 q 271 697 295 701 l 271 694 q 318 676 300 690 q 347 644 337 663 q 360 602 357 626 q 364 553 364 578 q 314 422 364 462 q 170 383 264 383 q 39 419 78 383 q 1 549 1 456 l 126 549 q 126 521 126 536 q 131 494 126 506 q 147 475 137 483 q 177 468 158 468 q 211 476 199 468 q 230 498 224 484 q 237 528 236 512 q 239 559 239 544 q 232 609 239 591 q 213 636 226 627 q 178 647 200 645 q 124 650 156 650 l 124 740 q 173 742 153 740 q 206 753 194 744 q 224 779 219 762 q 230 827 230 796 q 221 874 230 851 q 182 897 213 897 q 140 875 148 897 q 133 829 133 853 l 9 829 m 718 0 l 718 132 l 528 132 l 528 249 q 613 440 583 373 q 657 538 643 506 q 674 575 671 569 q 677 581 677 581 l 841 581 l 841 222 l 890 222 l 890 132 l 841 132 l 841 0 l 718 0 "},"@":{"x_min":59,"x_max":1024,"ha":1083,"o":"m 572 670 q 516 651 542 670 q 473 603 491 633 q 446 531 456 573 q 437 442 437 489 q 441 397 437 419 q 454 359 445 376 q 477 331 462 341 q 514 321 492 321 q 568 332 542 321 q 615 370 595 343 q 648 444 636 398 q 660 563 660 491 q 636 640 660 611 q 572 670 613 670 m 784 478 q 778 442 782 465 q 771 399 775 420 q 765 362 768 379 q 763 343 763 345 q 768 327 763 334 q 788 321 773 321 q 838 341 813 321 q 883 396 863 362 q 916 474 903 430 q 929 564 929 517 q 909 702 929 645 q 856 800 889 760 q 782 863 824 839 q 700 900 741 887 q 623 917 659 913 q 565 922 587 922 q 405 889 480 922 q 274 799 330 856 q 185 666 217 742 q 154 502 154 589 q 186 338 154 414 q 274 204 218 262 q 406 113 331 146 q 566 80 480 80 q 728 114 652 80 q 855 202 805 149 l 979 202 q 900 111 946 152 q 801 41 855 70 q 687 -1 747 13 q 566 -17 628 -17 q 368 23 460 -17 q 206 135 275 64 q 98 299 137 205 q 59 502 59 394 q 98 704 59 610 q 206 868 137 798 q 367 978 275 938 q 566 1019 460 1019 q 783 974 695 1019 q 924 865 871 930 q 1000 729 977 801 q 1024 602 1024 658 q 999 449 1024 520 q 933 325 975 378 q 838 241 892 272 q 726 211 784 211 q 668 230 697 211 q 633 288 640 249 l 630 291 q 555 231 599 251 q 472 211 512 211 q 393 233 426 211 q 340 292 360 256 q 310 369 320 327 q 301 452 301 412 q 317 568 301 511 q 365 669 333 625 q 445 740 397 714 q 555 767 493 767 q 640 748 607 767 q 690 687 673 730 l 693 687 l 705 750 l 832 750 l 784 478 "},"ö":{"x_min":60,"x_max":621,"ha":681,"o":"m 295 969 l 295 819 l 144 819 l 144 969 l 295 969 m 536 969 l 536 819 l 385 819 l 385 969 l 536 969 m 340 110 q 386 121 367 110 q 414 160 404 131 q 425 239 425 188 q 425 370 425 290 q 425 466 425 424 q 415 535 425 508 q 388 576 405 562 q 340 590 370 590 q 292 576 309 590 q 265 535 275 562 q 256 466 256 508 q 256 370 256 424 q 256 239 256 290 q 266 160 256 188 q 293 121 276 131 q 340 110 311 110 m 340 -14 q 192 13 247 -14 q 106 90 136 41 q 68 208 77 140 q 60 359 60 277 q 68 496 60 431 q 104 609 76 560 q 189 686 133 658 q 340 714 245 714 q 491 686 435 714 q 576 609 547 658 q 612 496 604 560 q 621 359 621 431 q 612 208 621 277 q 574 90 603 140 q 488 13 544 41 q 340 -14 433 -14 "},"i":{"x_min":93,"x_max":285,"ha":379,"o":"m 285 1002 l 285 848 l 93 848 l 93 1002 l 285 1002 m 285 0 l 93 0 l 93 701 l 285 701 l 285 0 "},"Õ":{"x_min":82,"x_max":749,"ha":832,"o":"m 655 1283 q 639 1221 649 1250 q 611 1169 629 1192 q 570 1126 595 1145 q 512 1108 546 1108 q 456 1117 483 1108 q 403 1139 429 1126 q 353 1161 377 1153 q 308 1169 329 1169 q 270 1149 282 1169 q 254 1108 259 1130 l 174 1108 q 188 1167 178 1135 q 216 1223 199 1198 q 259 1266 234 1249 q 316 1283 284 1283 q 373 1270 346 1283 q 425 1246 400 1257 q 471 1225 449 1235 q 509 1216 493 1216 q 553 1233 537 1216 q 571 1283 569 1250 l 655 1283 m 415 133 q 487 154 460 133 q 527 220 513 176 q 542 335 542 264 q 542 500 542 405 q 542 666 542 596 q 527 781 542 737 q 487 847 513 825 q 415 869 460 869 q 343 847 370 869 q 303 781 317 825 q 289 666 289 737 q 289 500 289 596 q 289 335 289 405 q 303 220 289 264 q 343 154 317 176 q 415 133 370 133 m 415 -17 q 216 26 286 -17 q 113 143 145 70 q 82 309 82 216 q 82 500 82 402 q 82 694 82 600 q 113 859 82 787 q 216 975 145 931 q 415 1019 286 1019 q 614 975 544 1019 q 717 859 685 931 q 749 694 749 787 q 749 500 749 600 q 749 309 749 402 q 717 143 749 216 q 614 26 685 70 q 415 -17 544 -17 "},"þ":{"x_min":76,"x_max":612,"ha":680,"o":"m 344 107 q 411 165 396 107 q 426 356 426 224 q 426 453 426 409 q 418 528 426 496 q 394 576 410 559 q 345 594 377 594 q 299 576 315 594 q 275 528 283 559 q 268 453 268 496 q 268 356 268 409 q 282 165 268 224 q 344 107 296 107 m 76 1003 l 268 1003 l 268 624 l 270 624 q 329 694 289 673 q 372 710 348 705 q 423 715 396 715 q 537 677 498 715 q 594 584 576 640 q 612 464 612 529 q 612 345 612 399 q 612 229 612 292 q 594 112 612 166 q 538 22 577 58 q 427 -14 500 -14 q 338 4 375 -14 q 270 67 300 22 l 268 67 l 268 -301 l 76 -301 l 76 1003 "},"]":{"x_min":29.515625,"x_max":318,"ha":378,"o":"m 318 -168 l 29 -168 l 29 -47 l 167 -47 l 167 927 l 29 927 l 29 1048 l 318 1048 l 318 -168 "},"m":{"x_min":61,"x_max":921,"ha":982,"o":"m 253 630 l 255 630 q 323 696 284 677 q 417 715 363 715 q 508 691 469 715 q 571 625 548 667 q 647 693 605 671 q 749 715 689 715 q 814 704 783 715 q 869 674 846 694 q 906 626 892 655 q 921 562 921 598 l 921 0 l 729 0 l 729 482 q 716 562 729 530 q 657 594 703 594 q 597 562 610 594 q 585 482 585 530 l 585 0 l 397 0 l 397 482 q 384 562 397 530 q 325 594 371 594 q 265 562 278 594 q 253 482 253 530 l 253 0 l 61 0 l 61 701 l 253 701 l 253 630 "},"8":{"x_min":27,"x_max":577,"ha":604,"o":"m 302 840 q 262 826 277 840 q 239 794 247 813 q 229 753 231 774 q 227 714 227 732 q 229 672 227 694 q 238 630 231 650 q 261 597 246 610 q 302 584 276 584 q 342 597 327 584 q 365 630 357 610 q 374 672 372 650 q 377 714 377 694 q 374 753 377 732 q 364 794 372 774 q 341 826 356 813 q 302 840 326 840 m 301 434 q 251 415 268 434 q 226 369 234 396 q 219 313 219 342 q 219 261 219 284 q 221 218 219 241 q 233 175 224 195 q 258 142 242 155 q 301 130 274 130 q 344 142 328 130 q 369 175 361 155 q 381 218 378 195 q 384 261 384 241 q 384 313 384 284 q 376 369 384 342 q 351 415 368 396 q 301 434 334 434 m 302 -12 q 96 49 165 -12 q 27 249 27 111 q 31 333 27 293 q 51 408 36 374 q 93 468 66 442 q 167 511 120 495 l 167 514 q 101 544 126 524 q 60 591 75 564 q 40 652 45 618 q 35 725 35 686 q 102 920 35 858 q 302 982 169 982 q 501 920 434 982 q 569 725 569 858 q 563 652 569 686 q 543 591 558 618 q 503 544 528 564 q 437 514 477 524 l 437 511 q 510 468 483 495 q 552 408 537 442 q 572 333 567 374 q 577 249 577 293 q 507 49 577 111 q 302 -12 438 -12 "},"ž":{"x_min":31,"x_max":498,"ha":529,"o":"m 359 1002 l 485 1002 l 338 804 l 187 804 l 43 1002 l 167 1002 l 264 878 l 359 1002 m 494 562 l 220 124 l 498 124 l 498 0 l 31 0 l 31 138 l 300 576 l 41 576 l 41 701 l 494 701 l 494 562 "},"R":{"x_min":82,"x_max":711.046875,"ha":757,"o":"m 288 569 l 379 569 q 429 582 409 569 q 462 618 449 596 q 479 666 474 639 q 484 716 484 692 q 456 818 484 788 q 379 848 428 848 l 288 848 l 288 569 m 288 0 l 82 0 l 82 1002 l 461 1002 q 630 935 568 1002 q 692 739 692 868 q 650 577 692 643 q 509 494 608 510 l 509 491 q 555 482 525 488 q 615 458 585 477 q 667 400 645 438 q 690 294 690 362 q 690 227 690 270 q 690 138 690 184 q 697 53 690 92 q 711 0 704 15 l 509 0 q 487 95 487 45 q 487 194 487 145 q 487 278 487 238 q 474 349 487 319 q 430 396 461 378 q 341 415 399 415 l 288 415 l 288 0 "},"á":{"x_min":56,"x_max":607.53125,"ha":681,"o":"m 529 1002 l 311 804 l 223 804 l 345 1002 l 529 1002 m 410 336 q 344 336 374 336 q 290 325 313 336 q 256 290 268 315 q 244 218 244 266 q 246 179 244 199 q 255 144 248 160 q 277 117 262 127 q 314 107 291 107 q 376 132 356 107 q 403 194 396 158 q 410 270 410 230 q 410 336 410 309 m 598 130 q 601 65 598 98 q 607 0 604 31 l 429 0 l 420 93 l 418 93 q 343 12 386 38 q 238 -13 301 -13 q 153 4 188 -13 q 96 52 118 22 q 65 124 75 82 q 56 211 56 165 q 85 348 56 299 q 165 420 115 397 q 279 444 215 444 q 410 444 343 444 l 410 499 q 407 541 410 522 q 397 575 405 560 q 373 597 389 589 q 332 605 358 605 q 292 595 307 605 q 270 572 277 586 q 262 538 264 557 q 260 498 260 518 l 72 498 q 90 603 72 561 q 142 669 108 645 q 221 704 175 694 q 322 715 267 715 q 468 696 414 715 q 551 645 523 677 q 589 570 580 613 q 598 480 598 527 l 598 130 "},"×":{"x_min":34.03125,"x_max":646.53125,"ha":681,"o":"m 34 555 l 140 663 l 340 459 l 540 663 l 646 555 l 446 351 l 646 147 l 540 38 l 340 242 l 140 38 l 34 147 l 234 351 l 34 555 "},"o":{"x_min":60,"x_max":621,"ha":681,"o":"m 340 110 q 386 121 367 110 q 414 160 404 131 q 425 239 425 188 q 425 370 425 290 q 425 466 425 424 q 415 535 425 508 q 388 576 405 562 q 340 590 370 590 q 292 576 309 590 q 265 535 275 562 q 256 466 256 508 q 256 370 256 424 q 256 239 256 290 q 266 160 256 188 q 293 121 276 131 q 340 110 311 110 m 340 -14 q 192 13 247 -14 q 106 90 136 41 q 68 208 77 140 q 60 359 60 277 q 68 496 60 431 q 104 609 76 560 q 189 686 133 658 q 340 714 245 714 q 491 686 435 714 q 576 609 547 658 q 612 496 604 560 q 621 359 621 431 q 612 208 621 277 q 574 90 603 140 q 488 13 544 41 q 340 -14 433 -14 "},"5":{"x_min":38,"x_max":581,"ha":604,"o":"m 238 578 l 240 575 q 299 625 263 610 q 378 640 336 640 q 475 620 436 640 q 538 560 514 600 q 571 460 561 520 q 581 321 581 400 q 563 159 581 224 q 509 56 545 94 q 419 3 473 18 q 291 -12 365 -12 q 185 1 232 -12 q 105 42 138 14 q 54 117 71 71 q 38 228 38 162 l 231 228 q 233 190 231 208 q 244 158 236 172 q 266 137 252 145 q 302 130 279 130 q 373 176 359 130 q 388 321 388 223 q 388 378 388 345 q 381 442 388 411 q 357 494 374 472 q 307 515 340 515 q 272 505 287 515 q 250 478 258 495 q 238 443 242 461 q 235 407 235 424 l 50 407 l 50 970 l 546 970 l 546 820 l 238 820 l 238 578 "},"õ":{"x_min":60,"x_max":621,"ha":681,"o":"m 578 982 q 563 920 573 949 q 535 868 552 891 q 494 825 518 844 q 435 807 469 807 q 380 816 407 807 q 326 838 352 825 q 277 860 300 852 q 231 868 253 868 q 194 848 205 868 q 178 807 182 829 l 98 807 q 112 866 102 834 q 140 922 122 897 q 183 965 158 948 q 239 982 208 982 q 296 969 269 982 q 348 945 324 956 q 395 924 373 934 q 433 915 416 915 q 477 932 461 915 q 495 982 493 949 l 578 982 m 340 110 q 386 121 367 110 q 414 160 404 131 q 425 239 425 188 q 425 370 425 290 q 425 466 425 424 q 415 535 425 508 q 388 576 405 562 q 340 590 370 590 q 292 576 309 590 q 265 535 275 562 q 256 466 256 508 q 256 370 256 424 q 256 239 256 290 q 266 160 256 188 q 293 121 276 131 q 340 110 311 110 m 340 -14 q 192 13 247 -14 q 106 90 136 41 q 68 208 77 140 q 60 359 60 277 q 68 496 60 431 q 104 609 76 560 q 189 686 133 658 q 340 714 245 714 q 491 686 435 714 q 576 609 547 658 q 612 496 604 560 q 621 359 621 431 q 612 208 621 277 q 574 90 603 140 q 488 13 544 41 q 340 -14 433 -14 "},"7":{"x_min":42,"x_max":552,"ha":604,"o":"m 552 784 l 320 0 l 107 0 l 367 819 l 42 819 l 42 969 l 552 969 l 552 784 "},"K":{"x_min":73,"x_max":748.578125,"ha":757,"o":"m 522 1002 l 748 1002 l 473 552 l 748 0 l 517 0 l 281 514 l 279 514 l 279 0 l 73 0 l 73 1002 l 279 1002 l 279 573 l 281 573 l 522 1002 "},",":{"x_min":34.03125,"x_max":268.140625,"ha":302,"o":"m 89 183 l 268 183 l 164 -135 l 34 -135 l 89 183 "},"d":{"x_min":64,"x_max":602,"ha":681,"o":"m 332 107 q 394 165 380 107 q 408 356 408 224 q 408 453 408 409 q 401 528 408 496 q 378 576 394 559 q 332 594 362 594 q 283 576 300 594 q 259 528 267 559 q 252 453 252 496 q 252 356 252 409 q 266 165 252 224 q 332 107 281 107 m 419 0 l 419 78 l 416 78 q 349 6 389 26 q 253 -14 309 -14 q 138 23 178 -14 q 81 116 98 61 q 64 236 64 172 q 64 355 64 301 q 64 471 64 408 q 81 588 64 534 q 137 678 98 642 q 249 715 176 715 q 339 696 301 715 q 407 634 377 678 l 410 634 l 410 1002 l 602 1002 l 602 0 l 419 0 "},"¨":{"x_min":-7,"x_max":385,"ha":378,"o":"m 144 969 l 144 819 l -7 819 l -7 969 l 144 969 m 385 969 l 385 819 l 234 819 l 234 969 l 385 969 "},"Ô":{"x_min":82,"x_max":749,"ha":832,"o":"m 415 1228 l 318 1105 l 195 1105 l 339 1303 l 490 1303 l 637 1105 l 510 1105 l 415 1228 m 415 133 q 487 154 460 133 q 527 220 513 176 q 542 335 542 264 q 542 500 542 405 q 542 666 542 596 q 527 781 542 737 q 487 847 513 825 q 415 869 460 869 q 343 847 370 869 q 303 781 317 825 q 289 666 289 737 q 289 500 289 596 q 289 335 289 405 q 303 220 289 264 q 343 154 317 176 q 415 133 370 133 m 415 -17 q 216 26 286 -17 q 113 143 145 70 q 82 309 82 216 q 82 500 82 402 q 82 694 82 600 q 113 859 82 787 q 216 975 145 931 q 415 1019 286 1019 q 614 975 544 1019 q 717 859 685 931 q 749 694 749 787 q 749 500 749 600 q 749 309 749 402 q 717 143 749 216 q 614 26 685 70 q 415 -17 544 -17 "},"E":{"x_min":86,"x_max":633.640625,"ha":681,"o":"m 86 0 l 86 1002 l 622 1002 l 622 848 l 292 848 l 292 601 l 596 601 l 596 447 l 292 447 l 292 154 l 633 154 l 633 0 l 86 0 "},"Y":{"x_min":9.75,"x_max":747.9375,"ha":757,"o":"m 267 346 l 9 1002 l 234 1002 l 381 578 l 538 1002 l 747 1002 l 473 346 l 473 0 l 267 0 l 267 346 "},"\"":{"x_min":20,"x_max":432,"ha":452,"o":"m 20 643 l 20 1003 l 183 1003 l 183 643 l 20 643 m 269 643 l 269 1003 l 432 1003 l 432 643 l 269 643 "},"‹":{"x_min":9.53125,"x_max":292.640625,"ha":302,"o":"m 9 377 l 134 644 l 292 644 l 172 377 l 289 104 l 133 104 l 9 377 "},"˙":{"x_min":113,"x_max":264,"ha":378,"o":"m 264 969 l 264 819 l 113 819 l 113 969 l 264 969 "},"ê":{"x_min":60,"x_max":622.5,"ha":681,"o":"m 428 429 q 428 483 428 453 q 419 537 428 512 q 392 578 411 562 q 340 594 374 594 q 289 576 307 594 q 263 533 271 559 q 255 479 255 508 q 255 429 255 451 l 428 429 m 339 927 l 242 804 l 118 804 l 263 1002 l 413 1002 l 561 804 l 434 804 l 339 927 m 255 319 q 255 251 255 287 q 263 183 255 214 q 289 131 271 152 q 339 110 307 110 q 381 122 365 110 q 406 151 397 133 q 418 191 415 169 q 422 236 422 213 l 614 236 q 543 54 614 117 q 459 4 509 22 q 340 -14 408 -14 q 192 13 247 -14 q 106 90 136 41 q 68 208 77 140 q 60 359 60 277 q 68 496 60 431 q 104 609 76 560 q 189 686 133 658 q 339 715 244 715 q 493 684 436 715 q 579 601 550 653 q 615 476 607 548 q 622 319 622 403 l 255 319 "},"Ï":{"x_min":-7,"x_max":385,"ha":378,"o":"m 385 1270 l 385 1120 l 234 1120 l 234 1270 l 385 1270 m 144 1270 l 144 1120 l -7 1120 l -7 1270 l 144 1270 m 85 0 l 85 1002 l 291 1002 l 291 0 l 85 0 "},"„":{"x_min":65.328125,"x_max":537.640625,"ha":604,"o":"m 355 139 l 537 139 l 438 -135 l 307 -135 l 355 139 m 112 139 l 295 139 l 196 -135 l 65 -135 l 112 139 "},"Â":{"x_min":10.890625,"x_max":820.75,"ha":832,"o":"m 406 809 l 404 809 l 310 376 l 506 376 l 406 809 m 415 1228 l 318 1105 l 194 1105 l 338 1303 l 490 1303 l 637 1105 l 510 1105 l 415 1228 m 10 0 l 283 1002 l 553 1002 l 820 0 l 604 0 l 549 222 l 269 222 l 213 0 l 10 0 "},"Í":{"x_min":72.390625,"x_max":379.109375,"ha":379,"o":"m 379 1303 l 161 1105 l 72 1105 l 195 1303 l 379 1303 m 86 0 l 86 1002 l 292 1002 l 292 0 l 86 0 "},"´":{"x_min":72.140625,"x_max":378.390625,"ha":378,"o":"m 378 1003 l 160 804 l 72 804 l 194 1003 l 378 1003 "},"ì":{"x_min":0.4375,"x_max":306.78125,"ha":379,"o":"m 184 1002 l 306 804 l 218 804 l 0 1002 l 184 1002 m 285 0 l 93 0 l 93 701 l 285 701 l 285 0 "},"±":{"x_min":34,"x_max":647,"ha":681,"o":"m 34 137 l 647 137 l 647 -17 l 34 -17 l 34 137 m 265 714 l 416 714 l 416 530 l 647 530 l 647 376 l 416 376 l 416 191 l 265 191 l 265 376 l 34 376 l 34 530 l 265 530 l 265 714 "},"Ú":{"x_min":82,"x_max":751,"ha":833,"o":"m 606 1303 l 388 1105 l 300 1105 l 422 1303 l 606 1303 m 751 1002 l 751 291 q 733 179 751 234 q 678 80 716 124 q 575 10 639 37 q 417 -17 511 -17 q 164 66 246 -17 q 82 291 82 149 l 82 1002 l 288 1002 l 288 305 q 322 172 288 212 q 414 133 357 133 q 513 177 482 133 q 545 305 545 221 l 545 1002 l 751 1002 "},"|":{"x_min":94,"x_max":245,"ha":340,"o":"m 94 1041 l 245 1041 l 245 -347 l 94 -347 l 94 1041 "},"§":{"x_min":37,"x_max":566,"ha":604,"o":"m 311 403 q 343 422 326 412 q 372 445 359 433 q 394 473 385 457 q 403 507 403 488 q 393 545 403 530 q 369 571 383 560 q 335 589 354 582 q 298 603 317 596 q 273 593 290 600 q 241 575 257 587 q 212 548 224 564 q 200 509 200 531 q 210 471 200 488 q 238 441 221 453 q 275 419 255 428 q 311 403 295 409 m 532 820 q 437 858 489 839 q 336 877 385 877 q 283 864 309 877 q 258 818 258 852 q 280 775 258 792 q 337 743 303 757 q 411 712 371 728 q 486 673 452 696 q 542 614 519 649 q 566 524 566 578 q 531 418 566 462 q 446 345 496 374 q 525 284 497 322 q 553 188 553 246 q 526 86 553 126 q 457 23 499 46 q 364 -7 415 1 q 262 -17 313 -17 q 142 -3 201 -17 q 50 23 84 9 l 50 186 q 152 144 99 163 q 260 125 204 125 q 320 138 294 125 q 347 192 347 152 q 323 235 347 219 q 267 266 300 252 q 192 294 233 280 q 117 332 151 309 q 60 390 83 355 q 37 481 37 426 q 75 588 37 542 q 166 659 114 634 q 89 728 113 691 q 66 828 66 766 q 81 902 66 867 q 129 962 97 937 q 209 1003 161 988 q 323 1019 257 1019 q 430 1006 377 1019 q 532 975 482 993 l 532 820 "},"Ý":{"x_min":9.75,"x_max":747.9375,"ha":757,"o":"m 568 1304 l 350 1105 l 261 1105 l 384 1304 l 568 1304 m 267 346 l 9 1002 l 234 1002 l 381 578 l 538 1002 l 747 1002 l 473 346 l 473 0 l 267 0 l 267 346 "},"b":{"x_min":76,"x_max":612,"ha":680,"o":"m 344 107 q 411 165 396 107 q 426 356 426 224 q 426 453 426 409 q 418 528 426 496 q 394 576 410 559 q 345 594 377 594 q 299 576 315 594 q 275 528 283 559 q 268 453 268 496 q 268 356 268 409 q 282 165 268 224 q 344 107 296 107 m 76 1002 l 268 1002 l 268 634 l 270 634 q 338 696 300 678 q 427 715 375 715 q 538 678 500 715 q 594 588 577 642 q 612 471 612 534 q 612 355 612 408 q 612 236 612 301 q 594 116 612 172 q 537 23 576 61 q 423 -14 498 -14 q 328 6 367 -14 q 261 78 288 26 l 258 78 l 258 0 l 76 0 l 76 1002 "},"q":{"x_min":67,"x_max":605,"ha":681,"o":"m 335 107 q 397 165 383 107 q 411 356 411 224 q 411 453 411 409 q 404 528 411 496 q 381 576 397 559 q 335 594 365 594 q 286 576 303 594 q 262 528 270 559 q 255 453 255 496 q 255 356 255 409 q 269 165 255 224 q 335 107 284 107 m 605 -301 l 413 -301 l 413 67 l 410 67 q 342 4 380 22 q 252 -14 304 -14 q 140 22 179 -14 q 84 112 101 58 q 67 229 67 166 q 67 345 67 292 q 67 464 67 399 q 84 584 67 529 q 141 677 101 640 q 256 715 181 715 q 352 694 312 715 q 419 624 392 674 l 422 624 l 422 701 l 605 701 l 605 -301 "},"Ö":{"x_min":82,"x_max":749,"ha":832,"o":"m 372 1270 l 372 1120 l 221 1120 l 221 1270 l 372 1270 m 613 1270 l 613 1120 l 462 1120 l 462 1270 l 613 1270 m 415 133 q 487 154 460 133 q 527 220 513 176 q 542 335 542 264 q 542 500 542 405 q 542 666 542 596 q 527 781 542 737 q 487 847 513 825 q 415 869 460 869 q 343 847 370 869 q 303 781 317 825 q 289 666 289 737 q 289 500 289 596 q 289 335 289 405 q 303 220 289 264 q 343 154 317 176 q 415 133 370 133 m 415 -17 q 216 26 286 -17 q 113 143 145 70 q 82 309 82 216 q 82 500 82 402 q 82 694 82 600 q 113 859 82 787 q 216 975 145 931 q 415 1019 286 1019 q 614 975 544 1019 q 717 859 685 931 q 749 694 749 787 q 749 500 749 600 q 749 309 749 402 q 717 143 749 216 q 614 26 685 70 q 415 -17 544 -17 "},"ﬂ":{"x_min":0,"x_max":604,"ha":680,"o":"m 604 1002 l 604 0 l 412 0 l 412 1002 l 604 1002 m 372 883 q 295 859 313 883 q 278 784 278 836 l 278 701 l 368 701 l 368 580 l 278 580 l 278 0 l 86 0 l 86 580 l 0 580 l 0 701 l 87 701 q 87 833 87 776 q 105 929 87 890 q 169 987 124 967 q 303 1007 214 1007 q 337 1007 321 1007 q 372 1007 354 1007 l 372 883 "},"z":{"x_min":31,"x_max":498,"ha":529,"o":"m 494 562 l 220 124 l 498 124 l 498 0 l 31 0 l 31 138 l 300 576 l 41 576 l 41 701 l 494 701 l 494 562 "},"™":{"x_min":4,"x_max":1116,"ha":1170,"o":"m 435 1002 l 435 902 l 285 902 l 285 400 l 154 400 l 154 902 l 4 902 l 4 1002 l 435 1002 m 1116 401 l 985 401 l 985 865 l 982 865 l 861 401 l 733 401 l 617 865 l 615 865 l 615 401 l 484 401 l 484 1002 l 700 1002 l 800 593 l 802 593 l 907 1002 l 1116 1002 l 1116 401 "},"ã":{"x_min":56,"x_max":607.53125,"ha":681,"o":"m 410 336 q 344 336 374 336 q 290 325 313 336 q 256 290 268 315 q 244 218 244 266 q 246 179 244 199 q 255 144 248 160 q 277 117 262 127 q 314 107 291 107 q 376 132 356 107 q 403 194 396 158 q 410 270 410 230 q 410 336 410 309 m 578 982 q 563 920 573 949 q 535 868 553 891 q 494 825 518 844 q 435 807 469 807 q 379 816 407 807 q 326 838 352 825 q 277 860 300 852 q 231 868 253 868 q 194 848 205 868 q 178 807 182 829 l 97 807 q 112 866 102 834 q 140 922 122 897 q 183 965 157 948 q 239 982 208 982 q 296 969 269 982 q 348 945 324 956 q 395 924 373 934 q 433 915 416 915 q 477 932 461 915 q 495 982 493 949 l 578 982 m 598 130 q 601 65 598 98 q 607 0 604 31 l 429 0 l 420 93 l 418 93 q 343 12 386 38 q 238 -13 301 -13 q 153 4 188 -13 q 96 52 118 22 q 65 124 75 82 q 56 211 56 165 q 85 348 56 299 q 165 420 115 397 q 279 444 215 444 q 410 444 343 444 l 410 499 q 407 541 410 522 q 397 575 405 560 q 373 597 389 589 q 332 605 358 605 q 292 596 307 605 q 270 572 277 587 q 262 538 264 558 q 260 498 260 519 l 72 498 q 90 603 72 562 q 142 669 108 645 q 221 704 175 694 q 322 715 267 715 q 468 696 414 715 q 551 645 523 677 q 589 570 580 613 q 598 480 598 527 l 598 130 "},"æ":{"x_min":56,"x_max":1003,"ha":1059,"o":"m 809 436 q 809 487 809 458 q 800 543 809 517 q 773 586 792 568 q 721 605 755 605 q 666 586 685 605 q 637 540 646 567 q 629 484 629 513 q 629 436 629 455 l 809 436 m 330 110 q 400 132 377 110 q 431 185 423 154 q 440 255 440 217 q 440 327 440 294 q 355 327 392 327 q 294 315 318 327 q 256 276 269 303 q 244 201 244 250 q 265 135 244 159 q 330 110 287 110 m 629 326 q 629 254 629 292 q 637 184 629 216 q 666 131 646 152 q 720 110 685 110 q 762 122 746 110 q 787 151 778 133 q 799 191 796 169 q 803 235 803 213 l 995 235 q 927 53 995 120 q 722 -14 859 -14 q 662 -9 693 -14 q 602 8 631 -4 q 549 46 573 22 q 513 108 525 70 q 416 10 474 35 q 283 -14 358 -14 q 117 40 178 -14 q 56 205 56 95 q 80 328 56 282 q 153 399 105 374 q 274 430 201 424 q 440 437 346 437 q 440 495 440 464 q 433 550 440 526 q 406 589 426 574 q 346 605 387 605 q 279 573 297 605 q 262 497 262 542 l 74 497 q 95 606 74 563 q 152 672 116 648 q 237 705 188 696 q 342 715 286 715 q 400 710 370 715 q 456 695 430 706 q 505 664 483 684 q 539 616 527 645 q 619 694 573 674 q 721 715 665 715 q 874 685 817 715 q 959 602 931 655 q 995 478 988 549 q 1003 326 1003 407 l 629 326 "},"®":{"x_min":59,"x_max":1072,"ha":1131,"o":"m 503 537 l 562 537 q 596 545 583 537 q 617 566 608 553 q 628 595 625 580 q 632 625 632 610 q 612 686 632 668 q 562 705 593 705 l 503 705 l 503 537 m 503 203 l 370 203 l 370 805 l 615 805 q 724 764 684 805 q 765 646 765 724 q 738 549 765 588 q 647 499 712 510 l 647 496 q 677 493 657 496 q 715 478 696 489 q 749 443 735 467 q 764 379 764 420 q 764 339 764 364 q 764 286 764 313 q 768 236 764 259 q 777 203 773 213 l 647 203 q 631 260 631 231 q 631 320 631 289 q 631 370 631 346 q 623 413 631 395 q 595 441 615 431 q 537 452 575 452 l 503 452 l 503 203 m 566 80 q 725 113 651 80 q 855 204 799 146 q 944 338 911 262 q 977 502 977 414 q 944 666 977 589 q 855 799 911 742 q 725 889 799 856 q 566 922 651 922 q 406 889 481 922 q 274 799 331 856 q 186 666 218 742 q 154 502 154 589 q 186 338 154 414 q 274 204 218 262 q 406 113 331 146 q 566 80 481 80 m 566 1019 q 763 978 671 1019 q 924 868 855 938 q 1032 704 993 798 q 1072 502 1072 610 q 1032 299 1072 394 q 924 135 993 205 q 763 23 855 64 q 566 -17 671 -17 q 368 23 460 -17 q 206 135 275 64 q 98 299 137 205 q 59 502 59 394 q 98 704 59 610 q 206 868 137 798 q 368 978 275 938 q 566 1019 460 1019 "},"É":{"x_min":86,"x_max":633.640625,"ha":681,"o":"m 530 1303 l 312 1105 l 223 1105 l 346 1303 l 530 1303 m 86 0 l 86 1002 l 622 1002 l 622 848 l 292 848 l 292 601 l 596 601 l 596 447 l 292 447 l 292 154 l 633 154 l 633 0 l 86 0 "},"~":{"x_min":34.03125,"x_max":646.53125,"ha":681,"o":"m 646 392 q 613 335 630 364 q 577 282 597 306 q 530 244 556 259 q 470 230 504 230 q 402 244 439 230 q 330 276 366 259 q 264 307 294 292 q 217 322 234 322 q 181 310 197 322 q 153 282 166 299 q 132 246 141 266 q 112 207 122 225 l 34 310 q 66 370 49 340 q 106 426 84 401 q 156 467 129 451 q 216 483 183 483 q 285 468 249 483 q 355 437 321 453 q 419 405 389 420 q 470 391 449 391 q 504 401 490 391 q 529 427 518 411 q 549 460 540 442 q 568 494 559 478 l 646 392 "},"³":{"x_min":-1,"x_max":362,"ha":362,"o":"m 7 829 q 49 951 7 916 q 103 975 71 968 q 184 982 136 982 q 311 945 269 982 q 353 826 353 909 q 348 784 353 805 q 335 745 344 763 q 309 713 325 726 q 269 697 293 701 l 269 694 q 316 676 298 690 q 345 644 335 663 q 358 602 355 626 q 362 553 362 578 q 312 422 362 462 q 168 383 262 383 q 37 419 76 383 q -1 549 -1 456 l 124 549 q 124 521 124 536 q 129 494 124 506 q 145 475 135 483 q 175 468 156 468 q 209 476 197 468 q 228 498 222 484 q 235 528 234 512 q 237 559 237 544 q 230 609 237 591 q 211 636 224 627 q 176 647 199 645 q 122 650 154 650 l 122 740 q 171 742 151 740 q 204 753 192 744 q 222 779 217 762 q 228 827 228 796 q 219 874 228 851 q 180 897 211 897 q 138 875 146 897 q 131 829 131 853 l 7 829 "},"¡":{"x_min":144,"x_max":307,"ha":453,"o":"m 307 549 l 144 549 l 144 716 l 307 716 l 307 549 m 306 -287 l 145 -287 l 145 447 l 306 447 l 306 -287 "},"[":{"x_min":60,"x_max":348.46875,"ha":378,"o":"m 60 1048 l 348 1048 l 348 927 l 211 927 l 211 -47 l 348 -47 l 348 -168 l 60 -168 l 60 1048 "},"L":{"x_min":87,"x_max":600.609375,"ha":605,"o":"m 87 0 l 87 1002 l 293 1002 l 293 167 l 600 167 l 600 0 l 87 0 "}," ":{"x_min":0,"x_max":0,"ha":302},"%":{"x_min":44,"x_max":1016,"ha":1060,"o":"m 239 567 q 294 601 283 567 q 305 722 305 636 q 305 763 305 739 q 298 808 305 787 q 278 844 292 829 q 239 859 265 859 q 199 844 212 859 q 179 808 185 829 q 173 763 173 787 q 173 722 173 739 q 183 601 173 636 q 239 567 194 567 m 819 110 q 874 144 863 110 q 885 265 885 179 q 885 306 885 282 q 878 351 885 330 q 858 387 872 372 q 819 402 845 402 q 779 387 792 402 q 759 351 765 372 q 753 306 753 330 q 753 265 753 282 q 763 144 753 179 q 819 110 774 110 m 377 -29 l 276 -29 l 674 987 l 774 987 l 377 -29 m 240 457 q 144 472 182 457 q 84 520 106 488 q 52 598 61 551 q 44 706 44 645 q 51 808 44 760 q 80 892 58 856 q 139 948 101 927 q 240 969 178 969 q 340 948 301 969 q 399 892 378 927 q 428 808 421 856 q 436 706 436 760 q 426 598 436 645 q 394 520 416 551 q 334 472 372 488 q 240 457 297 457 m 820 0 q 724 15 762 0 q 664 63 686 31 q 632 141 641 94 q 624 249 624 188 q 631 351 624 303 q 660 435 638 399 q 719 491 681 470 q 820 512 758 512 q 920 491 881 512 q 979 435 958 470 q 1008 351 1001 399 q 1016 249 1016 303 q 1006 141 1016 188 q 974 63 996 94 q 914 15 952 31 q 820 0 877 0 "},"P":{"x_min":87,"x_max":718,"ha":756,"o":"m 293 562 l 406 562 q 448 573 429 562 q 481 604 467 585 q 502 647 495 623 q 510 696 510 671 q 505 754 510 727 q 487 803 500 782 q 452 836 474 824 q 396 848 429 848 l 293 848 l 293 562 m 87 1002 l 456 1002 q 577 981 527 1002 q 658 920 626 960 q 703 825 689 881 q 718 702 718 770 q 709 607 718 659 q 671 512 700 556 q 588 437 643 467 q 444 408 534 408 l 293 408 l 293 0 l 87 0 l 87 1002 "},"À":{"x_min":10.890625,"x_max":820.75,"ha":832,"o":"m 411 1303 l 533 1105 l 445 1105 l 227 1303 l 411 1303 m 406 809 l 404 809 l 310 376 l 506 376 l 406 809 m 10 0 l 283 1002 l 553 1002 l 820 0 l 604 0 l 549 222 l 269 222 l 213 0 l 10 0 "},"_":{"x_min":0,"x_max":681,"ha":681,"o":"m 0 -174 l 0 -105 l 681 -105 l 681 -174 l 0 -174 "},"ñ":{"x_min":76,"x_max":604,"ha":680,"o":"m 578 982 q 562 920 572 949 q 534 868 552 891 q 493 825 518 844 q 435 807 469 807 q 379 816 406 807 q 326 838 352 825 q 276 860 300 852 q 231 868 252 868 q 193 848 205 868 q 178 807 182 829 l 97 807 q 112 866 101 834 q 140 922 122 897 q 182 965 157 948 q 239 982 208 982 q 296 969 269 982 q 348 945 323 956 q 394 924 372 934 q 432 915 416 915 q 476 932 461 915 q 495 982 492 949 l 578 982 m 268 630 l 270 630 q 338 695 297 675 q 432 715 376 715 q 497 704 466 715 q 552 674 529 694 q 589 626 575 655 q 604 562 604 598 l 604 0 l 412 0 l 412 482 q 399 562 412 530 q 340 594 386 594 q 280 562 293 594 q 268 482 268 530 l 268 0 l 76 0 l 76 701 l 268 701 l 268 630 "},"+":{"x_min":34,"x_max":647,"ha":681,"o":"m 265 701 l 416 701 l 416 428 l 647 428 l 647 274 l 416 274 l 416 0 l 265 0 l 265 274 l 34 274 l 34 428 l 265 428 l 265 701 "},"‚":{"x_min":35.390625,"x_max":265.421875,"ha":302,"o":"m 83 139 l 265 139 l 166 -135 l 35 -135 l 83 139 "},"½":{"x_min":34.203125,"x_max":886,"ha":906,"o":"m 34 884 q 99 925 68 902 q 153 982 130 947 l 272 982 l 272 393 l 139 393 l 139 840 q 88 805 115 820 q 34 776 61 790 l 34 884 m 267 -38 l 183 -38 l 542 1018 l 630 1018 l 267 -38 m 886 90 l 886 0 l 520 0 l 520 102 q 639 249 594 194 q 711 338 685 304 q 746 396 736 373 q 756 447 756 419 q 745 484 756 469 q 708 499 735 499 q 678 492 689 499 q 662 474 667 485 q 656 449 658 462 q 655 421 655 435 l 527 421 q 571 546 527 501 q 701 589 616 589 q 830 554 781 589 q 880 438 880 520 q 854 339 880 390 q 791 241 828 288 q 715 155 754 194 q 651 90 677 116 l 886 90 "},"Æ":{"x_min":11.1875,"x_max":1092,"ha":1134,"o":"m 556 376 l 472 870 l 469 870 l 326 376 l 556 376 m 11 0 l 335 1002 l 1066 1002 l 1066 848 l 672 848 l 717 601 l 1047 601 l 1047 447 l 743 447 l 797 154 l 1092 154 l 1092 0 l 620 0 l 584 222 l 277 222 l 212 0 l 11 0 "},"Ë":{"x_min":86,"x_max":633.640625,"ha":681,"o":"m 536 1270 l 536 1120 l 385 1120 l 385 1270 l 536 1270 m 296 1270 l 296 1120 l 145 1120 l 145 1270 l 296 1270 m 86 0 l 86 1002 l 622 1002 l 622 848 l 292 848 l 292 601 l 596 601 l 596 447 l 292 447 l 292 154 l 633 154 l 633 0 l 86 0 "},"'":{"x_min":88,"x_max":251,"ha":339,"o":"m 88 643 l 88 1003 l 251 1003 l 251 643 l 88 643 "},"Š":{"x_min":59,"x_max":696,"ha":757,"o":"m 473 1303 l 599 1303 l 452 1105 l 301 1105 l 156 1303 l 280 1303 l 377 1180 l 473 1303 m 696 273 q 664 118 696 175 q 583 30 633 60 q 473 -7 534 1 q 353 -17 412 -17 q 199 9 258 -17 q 109 80 140 35 q 68 184 78 125 q 59 309 59 243 l 267 309 q 269 241 267 272 q 283 184 272 209 q 318 146 294 160 q 384 133 342 133 q 462 164 436 133 q 488 246 488 195 q 457 324 488 291 q 380 387 426 357 q 280 447 333 417 q 181 516 227 477 q 104 609 135 556 q 74 736 74 661 q 89 846 74 795 q 141 936 105 898 q 239 996 177 974 q 395 1019 302 1019 q 615 946 543 1019 q 688 717 688 874 l 484 717 q 480 772 484 745 q 466 821 477 799 q 438 855 456 842 q 388 869 419 869 q 309 841 337 869 q 282 762 282 814 q 312 681 282 714 q 389 620 343 648 q 489 564 436 592 q 588 497 542 535 q 665 405 634 459 q 696 273 696 352 "},"ª":{"x_min":22,"x_max":380.078125,"ha":409,"o":"m 252 791 q 209 791 228 791 q 175 784 189 791 q 153 763 161 778 q 145 720 145 748 q 146 697 145 709 q 152 675 147 685 q 165 658 157 664 q 189 652 174 652 q 229 667 215 652 q 247 704 242 682 q 252 751 252 727 q 252 791 252 775 m 258 645 l 256 645 q 140 580 216 580 q 48 620 75 580 q 22 716 22 660 q 41 797 22 768 q 93 841 61 827 q 167 855 125 855 q 252 855 208 855 l 252 889 q 243 936 252 918 q 201 954 235 954 q 162 933 169 954 q 156 888 156 913 l 33 888 q 44 951 33 927 q 78 991 56 975 q 130 1012 99 1006 q 195 1019 160 1019 q 290 1007 254 1019 q 345 977 326 996 q 369 932 363 957 q 376 878 376 907 l 376 667 q 376 628 376 647 q 380 590 376 609 l 264 590 l 258 645 "},"Œ":{"x_min":76,"x_max":1101,"ha":1134,"o":"m 567 848 l 449 848 q 366 835 399 848 q 315 787 333 823 q 288 688 296 752 q 280 521 280 624 q 280 364 280 433 q 293 249 280 295 q 336 178 307 202 q 421 154 366 154 l 567 154 l 567 848 m 388 0 q 251 22 306 0 q 161 83 195 44 q 108 173 126 122 q 83 284 91 224 q 76 408 76 344 q 76 534 76 471 q 88 744 76 656 q 137 890 100 832 q 242 974 174 947 q 423 1002 310 1002 l 1090 1002 l 1090 848 l 759 848 l 759 601 l 1063 601 l 1063 447 l 759 447 l 759 154 l 1101 154 l 1101 0 l 388 0 "},"˛":{"x_min":27,"x_max":318.78125,"ha":379,"o":"m 258 1 l 258 -2 q 220 -22 239 -11 q 185 -48 201 -33 q 160 -79 170 -62 q 150 -114 150 -95 q 166 -153 150 -143 q 211 -164 183 -164 q 263 -157 234 -164 q 318 -141 292 -150 l 318 -211 q 254 -236 286 -226 q 171 -247 223 -247 q 69 -224 111 -247 q 27 -142 27 -202 q 39 -88 27 -113 q 69 -45 51 -64 q 106 -14 87 -26 q 139 1 125 -2 l 258 1 "},"ð":{"x_min":60,"x_max":621,"ha":681,"o":"m 253 363 q 256 236 253 285 q 270 159 260 187 q 296 121 279 131 q 339 110 312 110 q 382 121 364 110 q 408 159 399 131 q 422 236 418 187 q 426 363 426 285 q 426 455 426 416 q 416 522 426 495 q 388 562 406 549 q 339 576 370 576 q 289 562 307 576 q 262 522 272 549 q 253 455 253 495 q 253 363 253 416 m 231 1042 q 270 1027 248 1036 q 311 1007 291 1018 q 349 986 332 996 q 375 968 366 975 l 487 1042 l 537 991 l 439 925 q 523 818 488 867 q 580 707 558 769 q 611 562 601 645 q 621 352 621 478 q 612 204 621 272 q 574 88 603 137 q 488 13 544 40 q 340 -14 433 -14 q 192 13 247 -14 q 106 88 136 40 q 68 204 77 137 q 60 352 60 272 q 70 486 60 423 q 106 597 80 549 q 179 673 133 645 q 298 701 225 701 q 372 687 342 701 q 436 637 401 673 l 439 639 q 372 756 413 706 q 293 830 330 806 l 176 753 l 122 802 l 227 871 q 199 889 210 882 q 177 902 187 896 q 155 911 167 907 q 128 920 144 914 l 128 925 l 231 1042 "},"T":{"x_min":8,"x_max":671,"ha":681,"o":"m 671 1003 l 671 836 l 442 836 l 442 0 l 236 0 l 236 836 l 8 836 l 8 1003 l 671 1003 "},"š":{"x_min":37,"x_max":565,"ha":604,"o":"m 396 1002 l 522 1002 l 375 804 l 224 804 l 80 1002 l 204 1002 l 301 878 l 396 1002 m 226 225 q 228 179 226 201 q 237 140 230 156 q 261 115 245 123 q 306 107 278 107 q 356 125 335 107 q 377 179 377 143 q 351 240 377 216 q 289 283 326 263 q 208 320 252 302 q 127 363 164 338 q 65 425 90 388 q 40 517 40 462 q 65 612 40 574 q 128 672 90 649 q 215 705 167 695 q 309 715 263 715 q 402 702 357 715 q 480 664 447 689 q 531 597 513 638 q 550 499 550 556 l 361 499 q 342 589 361 571 q 320 602 332 599 q 293 605 308 605 q 244 585 261 605 q 228 529 228 566 q 253 482 228 502 q 315 445 278 463 q 396 407 352 427 q 477 360 439 388 q 539 293 514 332 q 565 199 565 255 q 547 115 565 153 q 496 47 529 76 q 415 1 463 17 q 308 -14 368 -14 q 195 -4 246 -14 q 108 31 144 5 q 54 104 72 58 q 37 225 37 151 l 226 225 "},"Þ":{"x_min":87,"x_max":718,"ha":756,"o":"m 293 383 l 406 383 q 448 394 429 383 q 481 425 467 406 q 502 468 495 444 q 510 517 510 492 q 505 575 510 548 q 487 624 500 603 q 452 657 474 645 q 396 669 429 669 l 293 669 l 293 383 m 87 1002 l 293 1002 l 293 823 l 457 823 q 577 802 527 823 q 658 741 626 781 q 703 646 689 702 q 718 523 718 591 q 709 428 718 480 q 671 333 700 377 q 588 258 643 288 q 444 229 534 229 l 293 229 l 293 0 l 87 0 l 87 1002 "},"j":{"x_min":42.625,"x_max":285,"ha":379,"o":"m 285 1003 l 285 849 l 93 849 l 93 1003 l 285 1003 m 285 701 l 285 -63 q 240 -219 285 -173 q 106 -265 195 -265 q 42 -260 75 -265 l 42 -137 q 75 -128 58 -137 q 93 -82 93 -120 l 93 701 l 285 701 "},"1":{"x_min":66.375,"x_max":433,"ha":605,"o":"m 66 819 q 165 884 118 848 q 250 969 213 920 l 433 969 l 433 0 l 227 0 l 227 745 q 149 687 190 713 q 66 637 108 660 l 66 819 "},"›":{"x_min":9.53125,"x_max":292.640625,"ha":302,"o":"m 292 370 l 167 104 l 9 104 l 129 370 l 12 644 l 168 644 l 292 370 "},"ı":{"x_min":93,"x_max":285,"ha":379,"o":"m 285 0 l 93 0 l 93 701 l 285 701 l 285 0 "},"ä":{"x_min":56,"x_max":607.53125,"ha":681,"o":"m 296 969 l 296 819 l 145 819 l 145 969 l 296 969 m 536 969 l 536 819 l 385 819 l 385 969 l 536 969 m 410 336 q 344 336 374 336 q 290 325 313 336 q 256 290 268 315 q 244 218 244 266 q 246 179 244 199 q 255 144 248 160 q 277 117 262 127 q 314 107 291 107 q 376 132 356 107 q 403 194 396 158 q 410 270 410 230 q 410 336 410 309 m 598 130 q 601 65 598 98 q 607 0 604 31 l 428 0 l 420 93 l 418 93 q 343 12 386 38 q 238 -13 300 -13 q 153 4 187 -13 q 96 52 118 22 q 65 124 75 82 q 56 211 56 165 q 85 348 56 299 q 165 420 115 397 q 279 444 215 444 q 410 444 343 444 l 410 499 q 407 541 410 522 q 397 575 405 560 q 373 597 389 589 q 332 605 358 605 q 292 595 307 605 q 270 572 277 586 q 262 538 264 557 q 260 498 260 519 l 72 498 q 90 603 72 562 q 143 669 109 645 q 221 704 176 694 q 323 715 267 715 q 468 696 414 715 q 551 645 523 677 q 589 570 580 613 q 598 480 598 527 l 598 130 "},"<":{"x_min":57,"x_max":625,"ha":681,"o":"m 625 120 l 625 -33 l 57 279 l 57 416 l 625 731 l 625 577 l 220 345 l 625 120 "},"£":{"x_min":0,"x_max":577,"ha":604,"o":"m 271 461 l 271 142 l 571 142 l 571 0 l 3 0 l 3 142 l 79 142 l 79 461 l 0 461 l 0 603 l 79 603 l 79 723 q 139 916 79 851 q 327 982 199 982 q 520 918 463 982 q 577 730 577 854 l 416 730 q 412 769 416 749 q 401 804 409 788 q 379 830 392 820 q 345 840 365 840 q 287 808 304 840 q 271 731 271 776 l 271 603 l 433 603 l 433 461 l 271 461 "},"¹":{"x_min":34.203125,"x_max":272,"ha":362,"o":"m 34 884 q 99 925 68 902 q 153 982 130 947 l 272 982 l 272 393 l 139 393 l 139 840 q 88 805 115 820 q 34 776 61 790 l 34 884 "},"t":{"x_min":-1,"x_max":368,"ha":379,"o":"m -1 701 l 77 701 l 77 812 l 269 899 l 269 701 l 368 701 l 368 580 l 269 580 l 269 205 q 269 169 269 185 q 274 141 269 152 q 293 124 280 130 q 329 118 306 118 q 347 118 339 118 q 364 120 357 118 l 364 0 q 322 -5 344 -3 q 264 -7 300 -7 q 165 10 202 -7 q 108 53 128 28 q 83 105 89 79 q 77 148 77 131 l 77 580 l -1 580 l -1 701 "},"¬":{"x_min":33.59375,"x_max":646,"ha":680,"o":"m 495 410 l 33 410 l 33 564 l 646 564 l 646 146 l 495 146 l 495 410 "},"ù":{"x_min":76,"x_max":607,"ha":681,"o":"m 334 1002 l 457 804 l 368 804 l 150 1002 l 334 1002 m 412 71 l 409 71 q 341 5 379 23 q 247 -14 303 -14 q 182 -3 213 -14 q 127 26 150 6 q 90 74 104 45 q 76 138 76 102 l 76 701 l 268 701 l 268 215 q 280 137 268 168 q 340 107 293 107 q 399 137 386 107 q 412 215 412 168 l 412 701 l 607 701 l 607 138 q 607 69 607 104 q 607 0 607 34 l 412 0 l 412 71 "},"W":{"x_min":-1.359375,"x_max":1211.390625,"ha":1210,"o":"m -1 1002 l 209 1002 l 337 299 l 340 299 l 495 1002 l 737 1002 l 884 299 l 887 299 l 1009 1002 l 1211 1002 l 993 0 l 766 0 l 612 733 l 609 733 l 439 0 l 216 0 l -1 1002 "},"ï":{"x_min":-7,"x_max":385,"ha":378,"o":"m 385 969 l 385 819 l 234 819 l 234 969 l 385 969 m 144 969 l 144 819 l -7 819 l -7 969 l 144 969 m 284 0 l 92 0 l 92 701 l 284 701 l 284 0 "},">":{"x_min":56,"x_max":624,"ha":681,"o":"m 460 345 l 56 577 l 56 731 l 624 416 l 624 279 l 56 -33 l 56 120 l 460 345 "},"v":{"x_min":10.890625,"x_max":593.4375,"ha":604,"o":"m 10 701 l 205 701 l 302 175 l 304 175 l 405 701 l 593 701 l 404 0 l 193 0 l 10 701 "},"û":{"x_min":76,"x_max":607,"ha":681,"o":"m 338 927 l 242 804 l 118 804 l 262 1002 l 413 1002 l 560 804 l 433 804 l 338 927 m 412 71 l 409 71 q 341 5 379 23 q 247 -14 303 -14 q 182 -3 213 -14 q 127 26 150 6 q 90 74 104 45 q 76 138 76 102 l 76 701 l 268 701 l 268 215 q 280 137 268 168 q 340 107 293 107 q 399 137 386 107 q 412 215 412 168 l 412 701 l 607 701 l 607 138 q 607 69 607 104 q 607 0 607 34 l 412 0 l 412 71 "},"Ò":{"x_min":82,"x_max":749,"ha":832,"o":"m 411 1303 l 533 1105 l 445 1105 l 227 1303 l 411 1303 m 415 133 q 487 154 460 133 q 527 220 513 176 q 542 335 542 264 q 542 500 542 405 q 542 666 542 596 q 527 781 542 737 q 487 847 513 825 q 415 869 460 869 q 343 847 370 869 q 303 781 317 825 q 289 666 289 737 q 289 500 289 596 q 289 335 289 405 q 303 220 289 264 q 343 154 317 176 q 415 133 370 133 m 415 -17 q 216 26 286 -17 q 113 143 145 70 q 82 309 82 216 q 82 500 82 402 q 82 694 82 600 q 113 859 82 787 q 216 975 145 931 q 415 1019 286 1019 q 614 975 544 1019 q 717 859 685 931 q 749 694 749 787 q 749 500 749 600 q 749 309 749 402 q 717 143 749 216 q 614 26 685 70 q 415 -17 544 -17 "},"&":{"x_min":16,"x_max":902.03125,"ha":907,"o":"m 360 670 q 395 695 377 681 q 426 727 413 710 q 449 764 440 743 q 458 807 458 784 q 435 871 458 848 q 373 894 413 894 q 314 872 341 894 q 288 814 288 850 q 310 736 288 771 q 360 670 332 702 m 320 449 q 253 378 284 420 q 222 287 222 337 q 261 173 222 214 q 371 133 300 133 q 454 148 414 133 q 520 199 493 163 l 320 449 m 640 78 q 513 1 581 20 q 367 -17 445 -17 q 106 61 196 -17 q 16 287 16 139 q 31 378 16 337 q 73 454 47 420 q 135 518 100 489 q 209 573 171 548 q 170 625 190 598 q 134 684 150 653 q 109 750 119 716 q 100 824 100 785 q 123 901 100 866 q 185 963 146 936 q 279 1004 225 989 q 396 1018 334 1018 q 475 1009 432 1018 q 556 977 519 1000 q 620 917 594 955 q 646 823 646 880 q 631 736 646 774 q 592 666 616 698 q 538 607 568 635 q 478 553 508 579 l 632 348 q 643 393 639 373 q 650 435 647 413 q 653 484 653 457 q 653 548 653 511 l 819 548 q 819 466 819 509 q 812 378 819 423 q 792 289 806 334 q 753 205 778 245 l 902 0 l 700 0 l 640 78 "},"":{"x_min":6.3125,"x_max":590,"ha":604,"o":"m 73 426 l 73 530 l 6 530 l 32 644 l 76 644 l 76 674 q 141 908 76 833 q 338 984 206 984 q 457 967 409 984 q 533 918 504 950 q 576 838 563 886 q 589 726 589 789 l 422 726 q 405 804 422 778 q 341 831 389 831 q 269 793 285 831 q 254 690 254 756 l 254 645 l 471 645 l 445 530 l 253 530 l 253 426 l 423 426 l 397 309 l 254 309 l 254 274 q 271 160 254 195 q 344 126 289 126 q 408 150 392 126 q 425 235 425 175 l 590 235 q 530 40 590 102 q 338 -21 470 -21 q 212 -3 263 -21 q 131 49 162 13 q 87 141 101 85 q 74 273 74 196 l 74 309 l 6 309 l 32 426 l 73 426 "},"˝":{"x_min":72.140625,"x_max":605.703125,"ha":606,"o":"m 605 1003 l 387 804 l 299 804 l 421 1003 l 605 1003 m 378 1003 l 160 804 l 72 804 l 194 1003 l 378 1003 "},"Ð":{"x_min":10,"x_max":753,"ha":832,"o":"m 296 154 l 394 154 q 468 172 439 154 q 513 233 497 191 q 535 340 529 274 q 542 501 542 406 q 542 632 542 570 q 528 743 542 695 q 485 819 514 791 q 402 848 455 848 l 296 848 l 296 601 l 428 601 l 428 491 l 296 491 l 296 154 m 90 491 l 10 491 l 10 601 l 90 601 l 90 1002 l 433 1002 q 596 968 533 1002 q 693 871 659 935 q 740 715 728 807 q 753 506 753 623 q 753 414 753 467 q 746 306 753 363 q 720 194 739 249 q 665 97 702 140 q 570 27 629 54 q 424 0 512 0 l 90 0 l 90 491 "},"I":{"x_min":86,"x_max":292,"ha":379,"o":"m 86 0 l 86 1002 l 292 1002 l 292 0 l 86 0 "},"ˉ":{"x_min":-8,"x_max":385,"ha":378,"o":"m -8 940 l 385 940 l 385 840 l -8 840 l -8 940 "},"G":{"x_min":76,"x_max":740,"ha":831,"o":"m 534 694 q 530 760 534 728 q 514 816 527 792 q 476 854 501 839 q 410 869 451 869 q 336 838 362 869 q 298 756 310 807 q 286 637 286 705 q 286 498 286 570 q 292 308 286 380 q 315 196 299 235 q 360 142 331 156 q 431 129 388 129 q 483 134 457 129 q 533 148 510 140 l 533 370 l 421 370 l 421 524 l 739 524 l 739 16 q 683 6 718 12 q 609 -4 649 1 q 530 -13 570 -10 q 461 -17 491 -17 q 255 11 331 -17 q 138 103 178 39 q 87 266 99 166 q 76 509 76 366 q 83 695 76 603 q 124 858 90 787 q 227 974 157 930 q 422 1019 296 1019 q 557 997 497 1019 q 659 934 618 975 q 720 833 700 894 q 740 694 740 773 l 534 694 "},"`":{"x_min":0,"x_max":306.25,"ha":378,"o":"m 183 1003 l 306 804 l 217 804 l 0 1003 l 183 1003 "},"·":{"x_min":69,"x_max":232,"ha":301,"o":"m 232 401 l 232 218 l 69 218 l 69 401 l 232 401 "},"r":{"x_min":76,"x_max":439.5,"ha":453,"o":"m 258 701 l 258 611 l 261 611 q 334 693 288 671 q 439 715 380 715 l 439 541 q 340 526 375 541 q 289 488 306 512 q 270 436 273 464 q 268 381 268 407 l 268 0 l 76 0 l 76 701 l 258 701 "},"¿":{"x_min":50,"x_max":550,"ha":604,"o":"m 393 715 l 393 548 l 230 548 l 230 715 l 393 715 m 383 447 l 383 304 q 359 212 383 258 q 309 121 336 167 q 260 29 282 75 q 238 -62 238 -16 q 253 -132 238 -103 q 317 -162 269 -162 q 360 -148 345 -162 q 382 -114 375 -135 q 389 -68 389 -93 q 389 -19 389 -42 l 550 -19 q 550 -105 550 -56 q 526 -198 550 -153 q 449 -273 502 -242 q 299 -304 397 -304 q 201 -289 247 -304 q 121 -246 155 -274 q 69 -175 88 -217 q 50 -77 50 -133 q 80 67 50 8 q 146 171 110 126 q 182 214 164 193 q 213 257 200 236 q 234 300 226 278 q 243 347 243 322 l 243 447 l 383 447 "},"ý":{"x_min":12.25,"x_max":592.078125,"ha":604,"o":"m 491 1002 l 273 804 l 185 804 l 307 1002 l 491 1002 m 198 -5 l 12 701 l 202 701 l 300 208 l 303 208 l 406 701 l 592 701 l 326 -265 l 125 -265 l 198 -5 "},"x":{"x_min":6.8125,"x_max":660.140625,"ha":681,"o":"m 197 0 l 6 0 l 209 367 l 23 701 l 238 701 l 338 488 l 454 701 l 646 701 l 462 365 l 660 0 l 443 0 l 323 245 l 197 0 "},"è":{"x_min":60,"x_max":622.5,"ha":681,"o":"m 428 429 q 428 483 428 453 q 419 537 428 512 q 392 578 411 562 q 340 594 374 594 q 289 576 307 594 q 263 533 271 559 q 255 479 255 508 q 255 429 255 451 l 428 429 m 335 1002 l 457 804 l 369 804 l 151 1002 l 335 1002 m 255 319 q 255 251 255 287 q 263 183 255 214 q 289 131 271 152 q 339 110 307 110 q 381 122 365 110 q 406 151 397 133 q 418 191 415 169 q 422 236 422 213 l 614 236 q 543 54 614 117 q 459 4 509 22 q 340 -14 408 -14 q 192 13 247 -14 q 106 90 136 41 q 68 208 77 140 q 60 359 60 277 q 68 496 60 431 q 104 609 76 560 q 189 686 133 658 q 339 715 244 715 q 493 684 436 715 q 579 601 550 653 q 615 476 607 548 q 622 319 622 403 l 255 319 "},"º":{"x_min":22,"x_max":387,"ha":409,"o":"m 204 655 q 233 661 222 655 q 250 685 244 667 q 259 733 256 703 q 262 812 262 763 q 253 911 262 878 q 204 944 244 944 q 155 911 164 944 q 147 812 147 878 q 149 733 147 763 q 158 685 152 703 q 175 661 164 667 q 204 655 186 655 m 204 580 q 108 596 144 580 q 53 643 72 613 q 28 714 34 673 q 22 805 22 756 q 27 887 22 848 q 51 955 32 925 q 106 1001 69 984 q 204 1019 143 1019 q 302 1001 265 1019 q 357 955 339 984 q 381 887 376 925 q 387 805 387 848 q 380 714 387 756 q 355 643 374 673 q 300 596 336 613 q 204 580 264 580 "},"Ø":{"x_min":38.4375,"x_max":799.359375,"ha":832,"o":"m 301 242 q 341 159 313 185 q 417 133 369 133 q 488 154 461 133 q 528 220 514 176 q 542 335 542 265 q 542 501 542 405 q 542 560 542 533 q 542 611 542 588 l 542 611 l 301 242 m 529 749 q 491 840 518 812 q 413 869 464 869 q 342 847 369 869 q 302 781 316 825 q 289 666 289 736 q 289 500 289 596 q 289 435 289 465 q 289 381 289 404 l 289 381 l 529 749 m 109 -48 l 38 2 l 124 133 q 82 302 82 206 q 82 500 82 398 q 82 693 82 600 q 113 859 82 787 q 215 975 145 931 q 413 1019 285 1019 q 561 997 502 1019 q 656 939 620 975 l 728 1048 l 799 998 l 709 862 q 749 696 749 789 q 749 501 749 602 q 749 309 749 402 q 717 143 749 216 q 615 26 685 70 q 417 -17 545 -17 q 275 2 333 -17 q 180 58 218 21 l 109 -48 "},"μ":{"x_min":76,"x_max":604,"ha":680,"o":"m 412 71 l 409 71 q 348 6 383 27 q 268 -14 314 -14 l 268 -265 l 76 -265 l 76 701 l 268 701 l 268 215 q 280 137 268 168 q 340 107 293 107 q 399 137 386 107 q 412 215 412 168 l 412 701 l 604 701 l 604 0 l 412 0 l 412 71 "},"÷":{"x_min":34,"x_max":647,"ha":681,"o":"m 253 534 l 253 701 l 427 701 l 427 534 l 253 534 m 253 0 l 253 167 l 427 167 l 427 0 l 253 0 m 34 428 l 647 428 l 647 274 l 34 274 l 34 428 "},"h":{"x_min":76,"x_max":604,"ha":680,"o":"m 412 0 l 412 482 q 399 562 412 530 q 340 594 386 594 q 280 562 293 594 q 268 482 268 530 l 268 0 l 76 0 l 76 1002 l 268 1002 l 268 630 l 270 630 q 338 695 297 675 q 432 715 376 715 q 497 704 466 715 q 552 674 529 694 q 589 626 575 655 q 604 562 604 598 l 604 0 l 412 0 "},".":{"x_min":69,"x_max":232,"ha":301,"o":"m 232 183 l 232 0 l 69 0 l 69 183 l 232 183 "},";":{"x_min":15.90625,"x_max":249.6875,"ha":301,"o":"m 69 521 l 69 701 l 232 701 l 232 521 l 69 521 m 71 183 l 249 183 l 146 -135 l 15 -135 l 71 183 "},"f":{"x_min":0,"x_max":372,"ha":379,"o":"m 372 883 q 295 859 313 883 q 278 784 278 836 l 278 701 l 368 701 l 368 580 l 278 580 l 278 0 l 86 0 l 86 580 l 0 580 l 0 701 l 87 701 q 87 833 87 776 q 105 929 87 890 q 169 987 124 967 q 303 1007 214 1007 q 337 1007 321 1007 q 372 1007 354 1007 l 372 883 "},"“":{"x_min":65.328125,"x_max":537.640625,"ha":604,"o":"m 247 729 l 65 729 l 164 1003 l 295 1003 l 247 729 m 490 729 l 307 729 l 406 1003 l 537 1003 l 490 729 "},"A":{"x_min":10.890625,"x_max":820.75,"ha":832,"o":"m 406 809 l 404 809 l 310 376 l 506 376 l 406 809 m 10 0 l 283 1002 l 553 1002 l 820 0 l 604 0 l 549 222 l 269 222 l 213 0 l 10 0 "},"6":{"x_min":33,"x_max":577,"ha":604,"o":"m 295 130 q 337 138 320 130 q 365 167 354 146 q 380 224 375 188 q 385 317 385 260 q 368 451 385 409 q 296 494 351 494 q 251 480 267 494 q 227 443 235 467 q 219 382 219 418 q 219 300 219 346 q 219 250 219 280 q 226 193 219 220 q 249 148 234 167 q 295 130 265 130 m 369 760 q 355 822 369 798 q 333 842 347 835 q 299 849 320 849 q 249 838 267 849 q 223 796 231 828 q 215 708 215 765 q 215 560 215 652 q 250 590 234 578 q 283 611 266 603 q 319 623 300 620 q 366 627 338 627 q 473 599 432 627 q 537 529 514 572 q 568 429 560 485 q 577 318 577 374 q 562 182 577 243 q 515 78 548 121 q 427 11 481 35 q 294 -12 374 -12 q 151 24 203 -12 q 72 121 98 61 q 39 254 46 180 q 33 403 33 328 q 33 656 33 547 q 62 837 33 765 q 151 945 92 909 q 313 982 209 982 q 415 969 368 982 q 496 930 461 957 q 549 861 530 904 q 568 760 568 819 l 369 760 "},"‘":{"x_min":35.390625,"x_max":265.421875,"ha":302,"o":"m 217 729 l 35 729 l 134 1003 l 265 1003 l 217 729 "},"O":{"x_min":82,"x_max":749,"ha":832,"o":"m 415 133 q 487 154 460 133 q 527 220 513 176 q 542 335 542 264 q 542 500 542 405 q 542 666 542 596 q 527 781 542 737 q 487 847 513 825 q 415 869 460 869 q 343 847 370 869 q 303 781 317 825 q 289 666 289 737 q 289 500 289 596 q 289 335 289 405 q 303 220 289 264 q 343 154 317 176 q 415 133 370 133 m 415 -17 q 216 26 286 -17 q 113 143 145 70 q 82 309 82 216 q 82 500 82 402 q 82 694 82 600 q 113 859 82 787 q 216 975 145 931 q 415 1019 286 1019 q 614 975 544 1019 q 717 859 685 931 q 749 694 749 787 q 749 500 749 600 q 749 309 749 402 q 717 143 749 216 q 614 26 685 70 q 415 -17 544 -17 "},"n":{"x_min":76,"x_max":604,"ha":680,"o":"m 268 630 l 270 630 q 338 695 297 675 q 432 715 376 715 q 497 704 466 715 q 552 674 529 694 q 589 626 575 655 q 604 562 604 598 l 604 0 l 412 0 l 412 482 q 399 562 412 530 q 340 594 386 594 q 280 562 293 594 q 268 482 268 530 l 268 0 l 76 0 l 76 701 l 268 701 l 268 630 "},"3":{"x_min":16,"x_max":574,"ha":604,"o":"m 27 728 q 43 852 27 802 q 92 930 59 901 q 176 970 125 958 q 299 982 227 982 q 495 922 432 982 q 559 723 559 862 q 553 653 559 689 q 533 587 548 618 q 493 535 518 557 q 430 508 468 514 l 430 505 q 504 475 476 497 q 548 421 533 453 q 568 350 563 389 q 574 269 574 311 q 497 53 574 119 q 277 -12 421 -12 q 156 1 206 -12 q 75 47 107 15 q 30 132 44 79 q 16 263 16 185 l 208 263 q 208 215 208 239 q 215 172 208 190 q 239 141 223 153 q 287 130 255 130 q 339 143 320 130 q 367 179 358 157 q 379 227 376 200 q 382 279 382 254 q 373 362 382 332 q 343 406 364 391 q 288 424 322 421 q 204 428 254 428 l 204 581 q 282 584 250 581 q 332 602 314 587 q 358 646 350 616 q 367 725 367 676 q 364 765 367 744 q 354 802 362 786 q 332 829 346 819 q 293 840 318 840 q 252 830 267 840 q 230 804 238 820 q 221 768 223 788 q 219 728 219 748 l 27 728 "},"9":{"x_min":26,"x_max":573,"ha":604,"o":"m 219 676 q 219 625 219 654 q 226 570 219 596 q 250 527 234 545 q 299 509 267 509 q 347 527 329 509 q 373 572 365 546 q 382 629 382 599 q 382 681 382 658 q 382 732 382 703 q 373 787 382 761 q 348 831 365 814 q 300 849 330 849 q 251 830 268 849 q 226 785 234 811 q 219 728 219 758 q 219 676 219 699 m 230 228 q 232 191 230 208 q 243 160 235 174 q 265 138 251 146 q 300 130 278 130 q 353 145 335 130 q 377 198 371 161 q 384 293 384 234 q 384 439 384 353 q 227 376 322 376 q 134 398 172 376 q 72 458 96 421 q 36 542 47 495 q 26 638 26 589 q 38 771 26 708 q 81 881 50 835 q 165 954 112 927 q 298 982 217 982 q 462 941 405 982 q 546 833 519 901 q 573 673 573 765 q 573 480 573 582 q 573 361 573 421 q 564 246 573 301 q 539 144 556 192 q 490 62 521 97 q 411 8 458 28 q 294 -12 363 -12 q 185 0 233 -12 q 103 39 137 11 q 54 112 70 67 q 38 228 38 158 l 230 228 "},"l":{"x_min":93,"x_max":285,"ha":379,"o":"m 285 1002 l 285 0 l 93 0 l 93 1002 l 285 1002 "},"¤":{"x_min":-27.53125,"x_max":629.8125,"ha":604,"o":"m 303 620 q 237 602 266 620 q 187 558 208 585 q 154 497 166 531 q 143 429 143 463 q 154 361 143 396 q 187 299 166 327 q 237 254 208 271 q 303 237 266 237 q 369 254 339 237 q 419 299 398 271 q 451 361 440 327 q 462 429 462 396 q 451 497 462 463 q 419 558 440 531 q 369 602 398 585 q 303 620 339 620 m 29 250 q -5 335 6 295 q -18 428 -18 375 q -6 522 -18 479 q 29 607 5 564 l -27 665 l 76 776 l 133 717 q 214 755 170 740 q 300 770 258 770 q 389 756 345 770 q 472 717 433 742 l 531 776 l 629 665 l 573 607 q 610 522 598 565 q 623 429 623 479 q 611 336 623 382 q 573 250 599 289 l 629 189 l 531 80 l 472 139 q 392 101 433 116 q 305 87 350 87 q 133 139 212 87 l 76 80 l -27 189 l 29 250 "},"4":{"x_min":30,"x_max":587,"ha":605,"o":"m 346 371 l 346 833 l 350 833 l 177 371 l 346 371 m 30 416 q 126 647 87 554 q 191 803 166 741 q 230 898 216 865 q 250 947 243 931 q 258 965 257 962 q 260 969 260 969 l 512 969 l 512 371 l 587 371 l 587 221 l 512 221 l 512 0 l 324 0 l 324 221 l 30 221 l 30 416 "},"p":{"x_min":76,"x_max":612,"ha":680,"o":"m 344 107 q 411 165 396 107 q 426 356 426 224 q 426 453 426 409 q 418 528 426 496 q 394 576 410 559 q 345 594 377 594 q 299 576 315 594 q 275 528 283 559 q 268 453 268 496 q 268 356 268 409 q 282 165 268 224 q 344 107 296 107 m 258 701 l 258 624 l 261 624 q 328 694 288 674 q 423 715 367 715 q 537 677 498 715 q 594 584 576 640 q 612 464 612 529 q 612 345 612 399 q 612 229 612 292 q 594 112 612 166 q 538 22 577 58 q 427 -14 500 -14 q 338 4 375 -14 q 270 67 300 22 l 268 67 l 268 -301 l 76 -301 l 76 701 l 258 701 "},"‡":{"x_min":7,"x_max":598,"ha":605,"o":"m 221 205 l 7 205 l 7 340 l 221 340 l 221 662 l 7 662 l 7 797 l 221 797 l 221 1002 l 384 1002 l 384 797 l 598 797 l 598 662 l 384 662 l 384 340 l 598 340 l 598 205 l 384 205 l 384 0 l 221 0 l 221 205 "},"à":{"x_min":56,"x_max":607.53125,"ha":681,"o":"m 335 1002 l 457 804 l 369 804 l 151 1002 l 335 1002 m 410 336 q 344 336 374 336 q 290 325 313 336 q 256 290 268 315 q 244 218 244 266 q 246 179 244 199 q 255 144 248 160 q 277 117 262 127 q 314 107 291 107 q 376 132 356 107 q 403 194 396 158 q 410 270 410 230 q 410 336 410 309 m 598 130 q 601 65 598 98 q 607 0 604 31 l 429 0 l 420 93 l 418 93 q 343 12 386 38 q 238 -13 301 -13 q 153 4 188 -13 q 96 52 118 22 q 65 124 75 82 q 56 211 56 165 q 85 348 56 299 q 165 420 115 397 q 279 444 215 444 q 410 444 343 444 l 410 499 q 407 541 410 522 q 397 575 405 560 q 373 597 389 589 q 332 605 358 605 q 292 595 307 605 q 270 572 277 586 q 262 538 264 557 q 260 498 260 518 l 72 498 q 90 603 72 561 q 142 669 108 645 q 221 704 175 694 q 322 715 267 715 q 468 696 414 715 q 551 645 523 677 q 589 570 580 613 q 598 480 598 527 l 598 130 "},"Ü":{"x_min":82,"x_max":751,"ha":833,"o":"m 613 1270 l 613 1120 l 462 1120 l 462 1270 l 613 1270 m 372 1270 l 372 1120 l 221 1120 l 221 1270 l 372 1270 m 751 1002 l 751 291 q 733 179 751 234 q 678 80 716 124 q 575 10 639 37 q 417 -17 511 -17 q 164 66 246 -17 q 82 291 82 149 l 82 1002 l 288 1002 l 288 305 q 322 172 288 212 q 414 133 357 133 q 513 177 482 133 q 545 305 545 221 l 545 1002 l 751 1002 "},"ó":{"x_min":60,"x_max":621,"ha":681,"o":"m 529 1002 l 311 804 l 223 804 l 345 1002 l 529 1002 m 340 110 q 386 121 367 110 q 414 160 404 131 q 425 239 425 188 q 425 370 425 290 q 425 466 425 424 q 415 535 425 508 q 388 576 405 562 q 340 590 370 590 q 292 576 309 590 q 265 535 275 562 q 256 466 256 508 q 256 370 256 424 q 256 239 256 290 q 266 160 256 188 q 293 121 276 131 q 340 110 311 110 m 340 -14 q 192 13 247 -14 q 106 90 136 41 q 68 208 77 140 q 60 359 60 277 q 68 496 60 431 q 104 609 76 560 q 189 686 133 658 q 340 714 245 714 q 491 686 435 714 q 576 609 547 658 q 612 496 604 560 q 621 359 621 431 q 612 208 621 277 q 574 90 603 140 q 488 13 544 41 q 340 -14 433 -14 "}}}
